<?xml version="1.0" standalone="no"?>
<!DOCTYPE svg PUBLIC "-//W3C//DTD SVG 20010904//EN"
 "http://www.w3.org/TR/2001/REC-SVG-20010904/DTD/svg10.dtd">
<svg version="1.0" xmlns="http://www.w3.org/2000/svg"
 width="512.000000pt" height="512.000000pt" viewBox="0 0 512.000000 512.000000"
 preserveAspectRatio="xMidYMid meet">
<metadata>
Created by potrace 1.11, written by Peter Selinger 2001-2013
</metadata>
<g transform="translate(0.000000,512.000000) scale(0.100000,-0.100000)"
fill="#000000" stroke="none">
<path d="M1400 4766 c0 -2 8 -10 18 -17 15 -13 16 -12 3 4 -13 16 -21 21 -21
13z"/>
<path d="M1460 4760 c-12 -7 -10 -9 7 -7 12 0 19 5 17 9 -6 10 -6 10 -24 -2z"/>
<path d="M1509 4763 c0 -5 0 -42 0 -83 0 -43 -5 -81 -12 -89 -7 -9 -8 -12 -1
-8 7 4 11 -18 12 -69 1 -41 -2 -72 -7 -70 -5 3 -15 -2 -22 -12 -13 -15 -12
-16 3 -4 9 7 18 9 21 5 10 -17 5 -98 -6 -105 -9 -6 -9 -8 1 -8 6 0 12 -8 12
-18 0 -10 -6 -24 -12 -31 -8 -9 -9 -12 -1 -7 8 4 11 -15 12 -69 0 -42 -3 -74
-8 -71 -5 3 -15 -2 -22 -12 -13 -15 -12 -16 3 -4 9 7 18 9 21 5 10 -17 5 -98
-6 -105 -9 -6 -9 -8 1 -8 6 0 12 -8 12 -18 0 -10 -6 -24 -12 -31 -9 -10 -9
-12 -1 -7 16 9 15 -153 -1 -173 -8 -11 -8 -13 1 -7 10 5 13 -13 12 -78 -1 -62
-4 -84 -12 -79 -7 4 -6 0 1 -9 7 -9 12 -29 10 -45 -2 -21 -8 -27 -23 -25 -16
2 -17 1 -5 -7 8 -5 18 -7 22 -5 13 8 9 -31 -4 -45 -9 -10 -9 -12 -1 -7 9 5 12
-39 11 -184 -1 -116 -5 -190 -11 -190 -5 0 -3 -7 4 -17 11 -13 11 -17 1 -20
-6 -3 -10 -9 -7 -13 3 -5 0 -12 -6 -16 -8 -4 -9 -3 -5 4 4 7 2 12 -3 12 -6 0
-11 -4 -11 -10 0 -5 -5 -10 -11 -10 -5 0 -7 5 -4 10 3 6 -1 10 -10 10 -9 0
-13 -4 -10 -10 3 -6 -1 -7 -9 -4 -9 3 -16 10 -16 16 0 5 -6 6 -12 2 -10 -6
-10 -5 -1 7 10 12 10 18 1 27 -9 9 -9 12 0 12 7 0 11 3 11 8 -4 21 3 34 15 29
7 -3 19 0 26 6 7 7 10 7 7 2 -8 -14 31 -17 39 -3 5 7 1 9 -9 5 -10 -3 -17 -3
-17 1 0 5 -27 7 -59 7 -50 -2 -58 1 -53 14 5 14 3 14 -11 3 -9 -8 -27 -15 -39
-16 -20 -2 -24 2 -23 25 0 15 4 25 8 22 5 -3 6 -11 3 -19 -3 -8 -2 -14 3 -14
18 0 20 15 6 37 -9 13 -11 23 -5 23 5 0 10 -5 10 -12 0 -9 3 -9 12 0 7 7 17
12 22 12 6 0 5 -4 -3 -9 -17 -11 -23 -53 -7 -48 6 2 10 11 10 20 -1 9 2 15 6
12 4 -3 11 2 14 11 9 22 8 24 -9 24 -8 0 -15 4 -15 8 0 4 9 8 19 8 11 0 19 -3
19 -6 -2 -19 5 -26 23 -26 19 0 19 1 3 13 -17 12 -17 14 2 29 19 15 19 15 -1
7 -17 -8 -60 -9 -112 -4 -9 1 -12 19 -11 59 2 47 -1 57 -14 56 -9 -1 -15 5
-13 15 1 9 -3 20 -9 24 -7 6 -6 7 4 4 8 -2 14 -10 13 -16 -2 -6 1 -11 5 -11 5
0 9 22 8 49 0 27 -4 44 -8 38 -6 -9 -8 -9 -8 1 0 6 -5 12 -11 12 -6 0 -8 -7
-5 -15 3 -8 9 -23 12 -32 5 -15 4 -16 -5 -3 -7 10 -11 11 -11 3 0 -7 -5 -13
-12 -13 -9 0 -9 3 0 12 21 21 13 32 -9 12 -19 -17 -19 -19 -3 -31 10 -7 14
-13 8 -13 -5 0 -2 -5 6 -11 13 -9 12 -10 -2 -5 -10 3 -20 1 -23 -5 -4 -5 -11
-7 -16 -3 -5 3 -7 10 -4 15 4 5 1 9 -4 9 -6 0 -11 5 -11 12 0 6 9 3 20 -7 20
-18 29 -8 10 11 -7 7 -3 18 11 33 17 19 19 25 8 31 -8 5 -19 4 -26 -2 -16 -13
-17 -32 -1 -22 7 4 8 3 4 -5 -10 -15 -29 -3 -22 15 3 8 2 14 -2 14 -4 0 -7 22
-8 50 -1 30 3 47 9 43 6 -3 7 -1 3 5 -4 7 -9 22 -11 34 -3 13 -9 24 -15 26 -5
2 -10 8 -10 13 0 6 4 8 9 5 5 -3 11 9 13 28 3 24 0 32 -9 29 -7 -3 -10 -9 -7
-14 3 -5 0 -9 -5 -9 -6 0 -11 5 -11 10 0 6 -5 10 -10 10 -7 0 -7 -7 0 -21 7
-11 9 -27 6 -35 -3 -7 4 -20 14 -27 11 -8 17 -17 14 -20 -4 -3 -15 4 -25 16
-10 12 -18 17 -19 11 0 -13 -48 -36 -54 -26 -3 5 -1 14 5 22 11 19 12 33 1 26
-5 -3 -8 8 -7 24 1 17 -1 30 -4 30 -3 0 -5 27 -4 60 2 41 -2 60 -10 60 -7 0
-6 4 3 10 8 5 10 10 4 10 -6 0 -11 7 -11 15 0 8 3 15 7 15 10 0 8 33 -2 47 -6
7 -14 11 -18 8 -5 -3 -12 -1 -15 5 -5 8 -12 7 -22 -2 -9 -7 -17 -13 -18 -13
-1 0 -9 6 -18 13 -9 8 -18 9 -21 3 -3 -5 -16 -7 -29 -4 -22 5 -22 5 -2 -10 18
-15 21 -15 34 1 13 16 13 16 7 -1 -3 -11 -2 -16 4 -12 12 8 53 -19 43 -28 -3
-4 -14 0 -24 9 -13 12 -19 12 -25 3 -4 -7 -3 -10 4 -5 7 4 10 -1 7 -14 -3 -14
0 -18 8 -13 7 4 5 -2 -3 -13 -14 -18 -14 -18 3 -4 11 8 29 15 40 17 16 2 18 1
8 -6 -9 -6 -10 -11 -2 -15 6 -4 11 -2 11 4 0 6 5 8 11 5 18 -12 -1 -20 -47
-21 -24 -1 -44 3 -44 9 0 5 -5 5 -13 -1 -10 -9 -13 -3 -12 27 1 29 -5 44 -23
60 -13 12 -22 16 -19 8 2 -7 -1 -21 -9 -31 -10 -14 -10 -24 -3 -38 8 -15 8
-23 -1 -32 -8 -8 -9 -6 -4 9 7 20 7 20 -15 0 -24 -21 -52 -25 -88 -13 -13 4
-23 4 -23 0 0 -5 -31 -8 -69 -7 l-68 1 4 -43 c2 -24 -1 -43 -6 -43 -5 0 -7 -9
-4 -19 4 -16 1 -19 -15 -14 -22 5 -31 -5 -38 -40 -3 -19 1 -23 23 -23 15 1 28
-5 30 -14 3 -9 1 -11 -4 -5 -15 18 -43 17 -43 -2 -1 -11 -7 -4 -15 16 -11 23
-20 31 -31 27 -9 -3 -18 -6 -20 -6 -3 0 0 -9 6 -20 8 -15 8 -20 -2 -20 -9 -1
-7 -5 4 -14 14 -10 15 -15 5 -26 -10 -12 -9 -12 5 -1 10 7 16 16 14 20 -2 3
15 5 37 5 23 -1 42 -5 41 -10 0 -5 3 -24 7 -42 4 -17 3 -34 -1 -37 -13 -8 2
-55 19 -56 14 0 14 -1 1 -7 -13 -6 -17 -32 -11 -78 0 -7 19 -11 45 -11 39 2
43 4 41 24 -1 12 2 20 7 17 5 -3 8 -11 7 -17 -1 -7 1 -19 5 -29 4 -9 6 -37 3
-62 -4 -46 4 -61 33 -68 8 -2 18 -7 22 -12 6 -9 27 -16 55 -18 9 -1 9 -5 3
-13 -5 -7 -6 -16 -2 -21 4 -4 -2 -2 -12 6 -18 14 -18 13 -13 -10 4 -14 4 -19
1 -12 -6 13 -30 16 -37 5 -2 -5 -2 -2 0 5 1 8 -3 12 -9 9 -7 -2 -12 -10 -11
-16 2 -6 -2 -11 -7 -11 -13 0 -13 17 0 25 6 3 10 14 10 23 0 15 -2 15 -10 2
-8 -13 -10 -12 -10 3 0 22 16 22 28 1 6 -11 12 -13 16 -6 4 6 -7 18 -24 27
l-30 16 2 -48 3 -48 46 -1 c25 0 50 -4 55 -7 6 -3 9 -27 8 -54 -1 -26 1 -52 5
-58 3 -5 6 -17 6 -25 0 -8 6 -14 13 -12 8 1 11 -2 7 -8 -4 -6 -14 -9 -22 -6
-9 4 -11 2 -6 -7 10 -16 11 -30 1 -43 -5 -7 4 -11 27 -11 19 0 32 4 29 8 -2 4
-1 9 3 12 5 2 2 2 -4 1 -7 -2 -20 -1 -28 2 -12 5 -11 9 5 27 15 15 17 23 8 28
-7 4 -16 5 -20 3 -4 -3 -8 0 -8 5 0 10 14 15 33 12 4 0 7 4 7 10 0 6 5 7 13 2
11 -7 15 -9 35 -12 4 0 8 -15 8 -32 1 -22 -1 -27 -7 -18 -7 11 -9 11 -9 1 0
-7 -5 -10 -11 -6 -7 4 -10 1 -7 -7 3 -8 10 -14 16 -14 7 0 12 -3 12 -7 0 -5 0
-11 0 -14 0 -4 -7 -1 -15 6 -10 9 -15 9 -15 1 0 -6 5 -12 10 -12 6 -1 16 -2
23 -3 7 -1 11 -12 9 -31 -5 -37 -5 -35 -3 -66 1 -23 5 -25 41 -23 22 1 40 -3
40 -7 0 -5 5 -9 11 -9 5 0 7 6 3 13 -5 8 -3 8 9 -2 17 -13 14 -36 -4 -26 -5 3
-6 -1 -3 -9 3 -9 11 -13 18 -9 6 4 5 -1 -3 -10 -11 -13 -11 -17 -1 -17 8 0 10
-3 7 -7 -10 -10 -78 -12 -71 -2 3 5 -2 6 -10 3 -17 -7 -22 11 -6 21 17 11 11
27 -7 21 -16 -6 -16 -5 0 8 10 8 14 16 10 19 -23 14 -32 -21 -24 -93 1 -13 2
-13 11 0 9 13 11 13 20 0 5 -8 10 -10 10 -4 0 14 32 13 42 -1 5 -6 8 -5 8 3 0
7 5 10 11 7 6 -4 9 -19 8 -33 -2 -15 0 -33 4 -40 5 -6 4 -12 -1 -12 -11 0 -4
-39 11 -57 6 -9 5 -13 -4 -13 -12 0 -12 -2 0 -9 11 -7 11 -9 0 -14 -11 -4 -11
-6 -1 -6 10 -1 10 -6 1 -22 -8 -15 -8 -19 0 -15 6 4 11 0 11 -8 0 -19 19 -21
26 -3 3 8 11 14 19 14 18 0 20 -13 3 -20 -10 -4 -10 -6 -1 -6 17 -1 36 36 23
44 -15 9 -12 22 4 22 11 0 14 -10 11 -34 -1 -18 1 -33 6 -33 5 0 5 -7 2 -17
-5 -12 -3 -14 8 -8 11 7 12 6 3 -6 -6 -8 -10 -24 -8 -37 2 -13 0 -21 -5 -18
-5 3 -4 -5 2 -19 8 -16 17 -23 27 -19 35 13 54 12 67 -4 12 -16 13 -15 6 3 -3
11 -3 17 1 13 11 -10 15 -78 4 -78 -4 0 -8 -5 -8 -11 0 -5 4 -8 8 -5 10 6 11
2 14 -78 2 -40 -1 -60 -9 -63 -14 -6 -8 -23 8 -23 6 0 7 6 3 13 -4 6 -4 9 1 5
4 -4 14 -3 21 3 11 9 15 7 20 -5 6 -15 7 -15 19 0 9 13 14 14 19 5 5 -7 5 -15
2 -18 -3 -4 -6 0 -6 8 0 11 -2 11 -10 -1 -14 -22 -12 -26 10 -26 19 0 25 9 21
29 -1 5 3 6 9 2 7 -4 7 -13 -1 -26 -8 -15 -7 -25 3 -37 12 -15 11 -16 -4 -3
-20 15 -23 9 -8 -19 10 -19 -2 -22 -27 -7 -6 4 -14 3 -18 -2 -12 -21 -76 -4
-102 28 -14 17 -29 28 -34 25 -5 -3 -9 0 -9 5 0 20 19 11 50 -21 35 -36 56
-43 64 -21 4 10 2 13 -8 10 -18 -7 -89 60 -72 68 6 3 -4 4 -21 2 -18 -2 -33 1
-33 6 0 5 -6 7 -14 4 -7 -3 -19 0 -26 6 -10 9 -11 9 -6 0 4 -7 2 -13 -3 -13
-6 0 -11 5 -11 11 0 6 -5 7 -12 2 -7 -4 -25 -8 -39 -8 -30 0 -34 20 -10 50 16
19 16 19 -12 1 -16 -10 -31 -16 -33 -13 -6 6 49 42 59 39 4 -1 7 3 7 8 0 15
-32 8 -54 -12 -11 -10 -24 -18 -29 -18 -5 0 6 13 26 28 l36 29 -55 0 c-30 0
-51 -3 -48 -6 3 -3 10 -7 15 -7 5 -1 14 -2 19 -3 6 0 10 -6 10 -12 0 -8 -6 -7
-16 2 -15 12 -16 11 -11 -6 5 -14 1 -24 -13 -33 -23 -14 -27 -4 -5 12 24 17
-8 58 -44 56 -49 -4 -63 -1 -55 13 5 8 2 8 -9 -2 -14 -11 -21 -11 -43 4 -20
13 -26 14 -22 4 4 -11 -4 -14 -31 -14 -36 0 -37 1 -37 37 0 20 4 34 8 32 4 -3
12 4 18 15 7 13 7 22 0 26 -10 6 -14 -1 -11 -20 1 -5 -5 -3 -12 6 -9 12 -27
16 -66 15 -29 0 -55 2 -58 7 -2 4 -9 4 -15 1 -5 -4 -3 5 7 19 11 17 13 27 5
32 -6 3 -8 11 -5 16 10 16 -5 51 -18 42 -7 -5 -28 -7 -47 -6 -19 2 -91 4 -160
5 l-124 3 1 -64 c1 -41 -2 -59 -8 -50 -7 11 -9 10 -10 -6 0 -11 -3 -14 -6 -7
-2 6 -14 12 -24 12 -11 0 -18 4 -15 9 4 5 1 11 -6 13 -6 2 -8 10 -4 16 5 9 12
6 25 -9 14 -17 20 -19 26 -9 5 8 4 11 -3 6 -6 -3 -16 3 -22 14 -22 41 -47 9
-29 -38 8 -22 8 -25 -2 -14 -19 18 -32 15 -26 -8 3 -11 2 -20 -2 -20 -4 0 -7
-16 -7 -35 1 -19 5 -35 9 -35 5 0 5 -5 2 -10 -4 -6 -10 -8 -15 -5 -14 9 -23
-16 -11 -28 9 -9 10 -7 5 8 -4 11 -4 17 1 13 11 -10 12 -137 1 -135 -5 1 -11
-4 -14 -12 -2 -8 0 -11 6 -7 6 3 14 2 17 -4 4 -6 1 -9 -6 -8 -6 2 -14 -3 -17
-11 -3 -8 0 -11 7 -7 6 4 11 3 11 -3 0 -5 -5 -13 -10 -16 -6 -3 -10 -1 -10 4
0 6 -5 11 -11 11 -5 0 -8 -4 -5 -8 2 -4 -6 -8 -20 -8 -13 0 -24 4 -24 9 0 5 7
6 16 3 9 -3 12 -2 9 5 -4 6 -14 8 -22 5 -9 -4 -11 -2 -7 6 4 6 3 8 -2 5 -6 -3
-10 5 -10 18 0 13 3 22 6 20 4 -2 7 2 7 10 0 8 -5 15 -10 15 -5 0 -4 6 2 14 9
10 9 16 1 21 -6 4 -14 4 -17 1 -4 -3 -1 -6 7 -6 8 0 9 -4 3 -12 -7 -11 -10
-70 -4 -114 0 -6 21 -10 51 -10 28 1 50 -1 50 -4 0 -3 21 -5 48 -4 75 3 78 1
76 -56 -2 -30 1 -48 7 -45 5 4 9 2 9 -2 0 -9 22 -11 158 -14 47 -1 62 -5 62
-16 0 -8 -5 -11 -12 -7 -8 5 -8 3 -2 -7 5 -8 10 -23 10 -34 1 -11 2 -25 3 -31
1 -14 71 -16 71 -3 0 5 4 9 10 9 5 0 7 -8 3 -17 -5 -15 -3 -15 11 2 10 11 15
15 11 8 -3 -7 4 -17 16 -23 12 -7 19 -8 16 -3 -3 4 17 8 44 8 32 0 49 -4 49
-12 0 -9 7 -10 24 -3 19 7 31 4 55 -14 27 -21 29 -24 13 -28 -18 -5 -24 -39
-10 -54 4 -3 41 -6 82 -6 43 0 73 -4 70 -9 -8 -13 10 -11 26 3 12 11 12 10 1
-4 -9 -13 -10 -18 -2 -18 6 0 14 7 17 15 6 14 8 13 19 -1 11 -16 13 -16 21 -2
7 12 12 13 19 4 12 -14 16 -58 4 -50 -13 8 -11 -10 3 -24 9 -9 9 -12 0 -12 -7
0 -12 -4 -12 -10 0 -6 30 -10 69 -10 51 0 70 -4 74 -15 4 -8 2 -17 -2 -19 -5
-3 -8 -20 -7 -38 1 -30 5 -33 31 -33 17 0 35 -4 42 -8 6 -4 14 -3 18 3 4 7 12
7 25 0 26 -14 43 -13 34 3 -6 9 -4 9 7 1 8 -6 25 -11 39 -9 14 1 30 -5 37 -14
16 -21 16 -34 1 -25 -10 6 -10 4 -2 -7 6 -8 10 -25 9 -40 -2 -24 1 -25 44 -23
59 2 59 2 38 18 -12 9 -14 16 -8 21 6 3 11 1 11 -6 0 -7 3 -9 6 -6 4 4 1 14
-7 24 -9 11 -10 14 -2 9 9 -5 11 -2 6 9 -5 13 -7 14 -14 3 -7 -10 -9 -10 -9 2
-1 12 -3 11 -11 -2 -14 -25 -24 -22 -44 10 -10 15 -14 24 -10 20 5 -4 14 -3
21 3 8 7 14 7 19 -1 3 -6 11 -8 16 -5 5 4 9 1 9 -4 0 -13 22 -10 32 4 4 6 6
-11 4 -37 -1 -26 0 -51 3 -56 9 -14 78 -21 89 -10 13 13 43 -18 36 -37 -7 -18
12 -20 22 -3 5 7 3 8 -6 3 -9 -5 -11 -4 -6 4 4 6 12 8 18 5 7 -5 9 -2 6 8 -4
9 0 15 8 15 8 0 14 -5 14 -10 0 -5 6 -4 14 2 12 10 17 8 26 -8 6 -12 8 -21 4
-21 -3 0 -1 -6 5 -14 8 -10 9 -16 1 -21 -6 -3 -7 -12 -3 -18 11 -17 14 -36 15
-90 1 -32 6 -46 14 -43 6 2 17 -1 24 -7 10 -9 11 -9 6 1 -5 8 0 11 16 8 13 -3
30 -5 39 -5 12 -1 15 -12 13 -51 -1 -31 3 -50 10 -50 6 0 4 -5 -4 -11 -12 -9
-11 -10 7 -6 13 3 25 1 28 -3 6 -10 45 -1 45 11 0 5 5 9 11 9 5 0 7 -4 4 -10
-3 -5 0 -10 8 -10 7 0 14 -7 14 -15 0 -8 -5 -15 -11 -15 -6 0 -4 -5 4 -10 8
-5 11 -10 6 -10 -5 0 -3 -7 4 -15 7 -9 10 -18 6 -22 -3 -3 -6 -1 -6 6 0 7 -4
10 -9 7 -22 -14 1 -41 35 -42 18 -1 34 3 34 7 0 5 8 5 18 0 9 -5 25 -12 35
-15 9 -3 17 -11 16 -18 0 -10 -2 -10 -6 0 -8 20 -18 14 -19 -13 -1 -16 3 -25
13 -25 8 0 11 4 8 10 -4 6 1 7 11 3 11 -4 13 -8 6 -11 -7 -2 -10 -8 -7 -13 4
-5 -2 -6 -12 -2 -10 3 -15 3 -11 -2 4 -4 4 -13 -2 -19 -6 -9 5 -12 40 -13 27
-1 52 3 56 9 4 7 -1 8 -17 3 -27 -8 -24 -3 7 13 19 10 21 9 20 -11 -1 -20 4
-22 56 -23 60 0 80 -7 53 -18 -11 -4 -14 -2 -9 6 4 7 3 8 -4 4 -6 -4 -9 -13
-5 -21 3 -8 2 -15 -1 -15 -4 0 -10 10 -15 22 -8 21 -8 21 -13 1 -9 -34 6 -48
31 -31 11 8 18 18 14 21 -3 4 -2 7 4 7 5 0 10 -16 10 -35 0 -21 -4 -31 -8 -23
-4 6 -5 16 -2 22 3 5 1 6 -5 2 -8 -5 -9 -13 -2 -25 5 -10 7 -20 5 -23 -5 -5
78 -10 182 -12 34 0 60 -3 57 -5 -2 -2 2 -11 9 -19 6 -9 7 -13 2 -10 -7 4 -11
-8 -11 -33 0 -32 3 -39 18 -39 13 0 17 -4 12 -12 -5 -9 -2 -9 9 1 14 11 17 11
17 0 0 -11 2 -11 9 -1 7 11 67 9 79 -3 2 -2 15 0 29 6 16 6 22 6 18 -1 -8 -13
1 -13 26 0 18 10 24 4 20 -22 0 -5 4 -8 9 -8 6 0 10 7 10 16 0 11 6 14 21 9
13 -4 19 -3 16 2 -4 5 0 10 8 10 10 0 12 -4 5 -12 -18 -22 3 -25 21 -3 11 11
19 17 20 12 0 -5 2 -17 4 -27 2 -9 -1 -15 -5 -12 -5 3 -11 1 -15 -5 -3 -5 1
-10 9 -10 9 0 16 -4 16 -10 0 -14 -13 -13 -28 2 -9 9 -12 9 -12 0 0 -7 4 -12
10 -12 5 0 9 -3 9 -7 -5 -30 5 -31 352 -33 273 0 355 2 367 12 11 9 13 9 9 1
-5 -8 0 -11 13 -10 25 2 26 14 2 21 -25 8 -25 69 1 74 9 2 18 -2 19 -10 0 -7
2 -24 3 -38 1 -14 3 -30 3 -35 1 -6 18 -10 37 -11 34 0 45 9 25 21 -5 3 -10 1
-10 -6 0 -8 -3 -9 -13 0 -8 6 -17 8 -20 4 -4 -3 -7 -1 -7 5 0 7 5 12 10 12 6
0 10 5 10 11 0 5 -4 7 -10 4 -5 -3 -10 -1 -10 5 0 7 7 9 16 6 12 -5 15 -2 10
10 -3 8 -6 19 -6 22 0 4 -4 1 -9 -6 -7 -11 -9 -11 -14 0 -4 11 4 14 34 13 22
-1 42 2 45 7 10 16 23 7 26 -20 2 -22 7 -26 26 -24 14 2 21 -1 20 -9 -2 -7 6
-14 17 -16 18 -3 18 -2 2 5 -10 4 -18 12 -18 17 0 6 -9 10 -19 9 -13 0 -20 6
-20 18 0 10 3 17 8 17 4 -1 9 0 12 1 17 7 127 5 138 -3 8 -6 12 -6 12 2 0 6 7
11 16 11 8 0 12 5 9 10 -3 6 -2 10 4 10 5 0 11 -5 13 -12 2 -6 12 -9 21 -5 9
3 14 13 11 21 -8 22 12 28 27 8 12 -15 12 -16 -2 -4 -14 11 -16 9 -16 -15 0
-16 2 -23 4 -16 2 7 11 9 19 6 20 -7 18 31 -2 48 -20 17 -50 -1 -46 -27 3 -18
3 -18 -11 0 -8 10 -19 16 -25 12 -8 -5 -10 -1 -5 10 4 10 2 15 -4 11 -5 -3
-10 0 -10 8 0 11 4 12 14 4 14 -12 43 4 43 23 0 6 -7 5 -15 -2 -13 -11 -18
-11 -28 0 -7 7 -7 10 -2 7 6 -3 17 -2 25 3 10 6 21 1 37 -16 13 -14 28 -22 35
-18 7 5 8 3 3 -7 -8 -12 -6 -12 8 0 19 15 23 26 6 15 -7 -4 -9 2 -7 16 3 21 8
22 113 24 78 2 109 6 108 14 -2 7 1 12 5 12 4 0 8 9 8 20 0 11 -3 20 -7 20 -4
0 -6 7 -5 16 4 24 34 43 59 37 26 -6 58 -6 64 1 2 2 4 28 4 58 l0 54 58 -2
c57 -2 58 -1 59 25 1 91 0 89 37 93 19 2 42 0 50 -5 9 -5 15 -4 15 3 0 6 5 8
11 4 9 -5 10 1 5 20 -4 18 -2 26 6 26 8 0 9 3 3 8 -6 4 -11 20 -11 35 -1 15 1
25 4 22 3 -2 11 3 19 13 8 9 12 11 8 5 -4 -9 2 -13 17 -13 13 0 29 -5 35 -11
8 -8 14 -6 21 8 14 26 13 103 -2 103 -6 0 0 6 14 14 15 8 30 9 37 4 7 -5 14
-5 18 2 4 6 3 10 -2 9 -20 -3 -27 2 -14 10 10 6 25 4 42 -5 26 -13 28 -13 24
6 -2 11 1 22 6 26 5 3 -1 14 -13 26 -17 14 -18 18 -6 14 10 -3 20 0 24 6 4 7
3 8 -4 4 -7 -4 -12 -2 -12 3 0 6 4 11 9 11 8 0 13 67 14 188 0 37 3 43 19 39
10 -3 18 0 18 5 0 7 4 7 13 1 13 -11 59 -3 58 10 -1 4 -1 14 -1 23 0 9 -5 12
-12 8 -7 -4 -4 3 7 16 11 13 14 20 6 15 -10 -6 -12 -4 -5 6 5 8 9 87 10 177 1
89 5 166 9 170 5 4 4 0 0 -8 -6 -11 -3 -10 12 3 19 17 20 16 20 -13 0 -22 -3
-27 -13 -19 -8 7 -14 6 -20 -2 -4 -8 -3 -9 4 -5 8 5 10 2 6 -8 -8 -21 22 -32
41 -16 12 10 16 9 21 -4 4 -12 10 -14 19 -6 15 13 13 43 -6 66 -12 16 -12 17
1 12 13 -5 15 27 15 253 0 193 -3 261 -12 270 -10 10 -13 10 -13 1 0 -7 5 -12
11 -12 5 0 7 -5 4 -10 -4 -7 -17 -4 -35 7 -31 18 -53 11 -30 -10 10 -10 11 -9
5 2 -5 9 -3 12 5 9 7 -2 14 -11 16 -20 3 -24 -34 -18 -42 5 -5 14 -8 16 -14 7
-5 -7 -7 0 -6 19 1 34 5 37 26 19 8 -7 6 -3 -4 9 -16 20 -19 43 -21 176 0 84
-4 157 -7 162 -3 6 -4 29 -2 52 1 24 -1 45 -6 48 -6 3 -7 -1 -4 -10 5 -12 2
-16 -12 -13 -11 2 -23 8 -27 13 -5 6 -7 3 -3 -7 3 -10 1 -18 -4 -18 -6 0 -9
-4 -7 -9 1 -5 -7 -17 -18 -25 -20 -16 -20 -16 -1 -31 28 -21 32 -19 33 21 0
20 6 41 12 47 9 9 10 7 5 -8 -7 -18 -6 -19 12 -5 17 14 18 14 6 -2 -10 -13
-10 -17 0 -21 11 -4 10 -6 0 -6 -7 -1 -10 -6 -6 -13 4 -6 3 -8 -4 -4 -6 3 -13
2 -16 -3 -3 -5 1 -11 9 -15 8 -3 15 -1 15 5 0 6 4 8 10 4 5 -3 2 -14 -7 -25
-12 -14 -20 -16 -29 -9 -8 7 -14 6 -17 -3 -3 -8 -6 -6 -6 5 -1 11 -7 17 -13
14 -7 -2 -12 -11 -10 -18 2 -8 0 -10 -4 -6 -5 4 -10 65 -11 134 -2 80 -7 129
-14 134 -8 4 -7 8 2 11 12 4 12 7 0 21 -7 9 -18 14 -24 10 -6 -3 -7 -1 -3 6 6
9 11 9 22 0 12 -9 14 -8 11 7 -1 11 -6 25 -10 32 -5 7 -3 12 4 12 7 0 10 3 6
6 -3 3 -12 2 -19 -2 -7 -5 -22 -9 -33 -9 -11 0 -25 -4 -30 -7 -23 -14 -30 10
-32 102 -3 130 -6 152 -20 157 -10 4 -9 12 3 36 l15 32 -20 -25 c-25 -30 -26
-39 -6 -46 8 -4 12 -10 9 -15 -9 -15 -20 -10 -33 14 -6 12 -9 14 -7 5 3 -10 2
-19 -2 -19 -38 -7 -52 -5 -53 10 -2 24 -2 24 6 50 5 16 4 21 -4 17 -6 -4 -11
-3 -11 2 0 19 14 21 37 7 25 -17 31 -11 11 9 -14 13 -21 16 -39 16 -7 0 -10
12 -7 29 2 17 1 28 -4 25 -4 -3 -8 0 -8 6 0 7 -6 8 -19 0 -25 -13 -24 -13 -49
9 -12 10 -19 21 -15 25 3 3 1 6 -5 6 -7 0 -11 3 -11 8 1 4 1 22 0 41 -1 23 -5
32 -14 28 -8 -3 -14 1 -14 8 0 7 6 11 13 8 8 -3 11 2 9 14 -2 10 -4 20 -4 23
-1 3 -21 5 -45 5 -26 0 -42 -4 -39 -10 3 -5 -1 -3 -10 5 -9 8 -17 31 -18 50
-3 63 -6 67 -54 67 -35 1 -43 -2 -35 -11 7 -9 5 -13 -5 -13 -8 0 -12 4 -9 8 2
4 0 10 -6 14 -6 4 -8 10 -5 15 3 5 -4 11 -15 15 -11 3 -20 12 -20 18 0 7 -4 6
-10 -3 -7 -11 -3 -18 13 -26 21 -12 21 -12 -5 -11 -14 1 -24 5 -22 8 2 4 -3
10 -12 13 -25 10 -27 7 -13 -11 11 -15 10 -14 -9 1 -23 20 -30 32 -12 21 6 -3
10 -2 10 4 0 5 -6 12 -12 15 -7 3 -2 3 12 -1 22 -5 23 -4 12 10 -17 21 -8 37
19 32 11 -2 30 0 42 6 17 7 10 8 -30 6 -29 -2 -50 0 -47 4 3 5 -2 6 -10 3 -9
-3 -16 -1 -16 5 0 8 -6 9 -18 2 -11 -6 -24 -6 -34 0 -10 6 -19 6 -23 0 -10
-18 -31 -1 -32 27 -2 26 -2 26 8 4 7 -19 29 -23 29 -6 0 3 -4 2 -10 -1 -5 -3
-10 3 -10 15 0 13 4 19 12 14 7 -4 8 -3 4 4 -4 6 -13 9 -21 5 -21 -7 -19 14 3
27 15 10 15 11 0 6 -9 -3 -18 -1 -20 4 -2 5 -36 10 -75 11 -40 1 -70 6 -67 10
3 5 0 9 -5 9 -6 0 -11 -4 -11 -8 0 -4 -9 -8 -19 -9 -13 -1 -18 3 -14 12 2 8
10 13 16 12 7 -1 12 8 12 21 0 12 -4 22 -9 21 -5 0 -13 5 -18 13 -8 10 -9 10
-5 -2 2 -8 10 -14 16 -12 6 1 11 -7 11 -19 0 -11 -4 -18 -9 -14 -6 3 -15 -4
-21 -15 -6 -11 -15 -20 -21 -20 -6 0 -8 4 -5 9 4 5 2 21 -4 35 -6 17 -6 26 0
26 6 0 10 5 10 11 0 6 -7 8 -16 5 -13 -5 -14 -4 -6 7 13 15 6 27 -13 27 -17 0
-13 -53 5 -76 13 -18 13 -18 -6 -1 -10 10 -19 30 -19 45 l-1 27 -89 3 c-50 2
-96 9 -104 15 -12 9 -13 9 -8 0 6 -9 -11 -12 -68 -11 -41 1 -75 5 -75 9 0 4
11 6 25 4 31 -3 40 8 20 25 -7 6 -11 18 -8 26 3 8 0 14 -6 14 -20 0 -12 16 9
17 11 1 20 -3 20 -8 0 -6 5 -7 11 -3 17 10 -13 24 -40 19 -12 -2 -21 1 -21 8
0 9 -2 9 -8 1 -7 -12 -47 -12 -58 -1 -4 4 -14 2 -21 -5 -11 -9 -17 -9 -24 3
-5 8 -9 10 -9 4 0 -5 -16 -10 -35 -10 -19 0 -35 3 -35 7 0 3 -9 4 -20 1 -11
-3 -17 -10 -13 -17 3 -6 -4 -2 -17 9 l-23 20 11 -21 c8 -15 8 -24 0 -32 -9 -9
-9 -12 -1 -12 7 0 15 5 18 10 4 6 11 8 16 5 5 -4 9 1 9 9 0 9 5 16 11 16 5 0
7 -5 3 -11 -4 -7 1 -7 16 1 12 7 20 8 16 2 -9 -15 23 -23 46 -11 16 9 24 7 37
-6 12 -14 13 -16 1 -9 -13 7 -13 6 0 -11 11 -14 11 -17 2 -11 -11 7 -12 4 -3
-13 13 -24 23 -28 15 -6 -4 8 -1 15 5 15 6 0 10 -5 9 -11 -2 -6 3 -13 10 -14
7 -2 8 -1 2 2 -13 6 6 33 22 33 7 0 7 -4 0 -12 -6 -7 -12 -17 -14 -23 -4 -13
-49 -14 -65 -2 -9 6 -13 5 -13 -4 0 -8 -6 -5 -15 7 -11 14 -13 14 -9 3 4 -13
-1 -16 -25 -15 -17 0 -31 5 -31 11 0 5 -5 3 -10 -5 -7 -11 -10 -11 -10 -2 0 8
-5 10 -12 5 -7 -4 -30 -8 -51 -9 -36 -2 -37 -1 -18 13 12 8 21 19 21 25 0 6
-10 3 -22 -8 -12 -10 -18 -13 -13 -5 5 9 3 12 -6 9 -8 -3 -13 -13 -11 -23 3
-15 0 -14 -19 4 -24 22 -40 21 -21 -1 8 -11 -2 -13 -54 -13 -39 0 -63 4 -61
10 2 5 11 10 20 10 8 0 19 4 24 9 5 5 2 6 -5 1 -11 -6 -12 -3 -3 12 6 11 8 23
5 26 -3 3 3 10 14 16 15 8 22 8 25 -2 4 -8 6 -8 6 2 1 11 5 10 16 -5 13 -16
14 -16 9 -1 -7 20 6 23 24 5 9 -9 12 -9 12 3 0 12 2 12 10 -1 5 -8 10 -10 10
-5 0 6 10 12 22 12 18 2 20 0 8 -7 -8 -5 -10 -10 -4 -10 16 0 23 10 17 25 -3
10 -11 11 -28 5 -14 -5 -27 -5 -30 -1 -3 5 -20 5 -39 1 -22 -5 -39 -3 -47 4
-9 8 -10 8 -5 -1 4 -7 2 -13 -3 -13 -6 0 -11 6 -11 13 0 9 -2 9 -9 -1 -11 -19
-15 -19 -34 -4 -9 8 -18 9 -21 3 -7 -10 -24 -10 -43 2 -6 4 -14 3 -17 -2 -4
-5 -2 -12 4 -16 5 -3 10 -3 10 2 0 4 5 0 11 -10 6 -9 16 -14 22 -11 9 5 9 4 0
-6 -10 -11 -15 -11 -29 1 -12 9 -15 10 -10 2 7 -13 -4 -17 -32 -14 -7 1 -3 -9
9 -23 16 -18 26 -23 34 -16 12 10 25 4 25 -11 0 -11 -42 -7 -59 5 -11 8 -13 8
-7 -1 4 -8 2 -13 -5 -13 -6 0 -9 8 -6 20 3 11 1 18 -4 14 -5 -3 -9 -11 -9 -18
0 -11 -24 -14 -102 -15 -68 -1 -105 -6 -110 -14 -6 -9 -8 -9 -8 1 0 6 -5 12
-11 12 -5 0 -7 -4 -4 -10 3 -5 1 -10 -4 -10 -6 0 -11 4 -11 8 0 12 -49 13 -71
2 -14 -8 -19 -7 -19 2 0 9 -3 9 -9 -2 -6 -8 -8 -17 -5 -21 2 -4 -6 -15 -18
-23 -12 -9 -19 -16 -15 -16 4 0 3 -9 -3 -19 -17 -33 27 -17 60 21 24 27 31 31
42 20 11 -11 10 -13 -2 -10 -15 3 -18 -14 -6 -42 5 -11 0 -16 -14 -17 -11 -1
-20 2 -20 8 0 5 5 9 10 9 6 0 10 6 10 13 -1 6 -8 3 -18 -9 -18 -21 -55 -26
-81 -10 -10 6 -12 5 -7 -2 5 -8 -2 -12 -19 -12 -18 0 -24 -4 -19 -12 6 -10 4
-10 -7 0 -7 6 -31 12 -54 11 -22 0 -34 -3 -27 -6 21 -8 13 -25 -10 -19 -23 6
-23 6 -2 -5 27 -14 27 -66 1 -80 -12 -7 -17 -6 -17 2 0 9 -3 9 -14 0 -17 -14
-42 11 -30 31 4 7 4 10 -1 6 -4 -4 -15 -2 -24 5 -12 9 -11 7 2 -13 21 -30 22
-47 2 -30 -12 10 -15 10 -15 0 0 -8 -10 -11 -30 -8 -30 4 -42 -6 -17 -15 6 -2
9 -7 6 -11 -4 -4 -14 0 -22 9 -9 8 -21 15 -28 15 -7 0 -21 7 -31 17 -11 9 -18
11 -18 5 0 -7 5 -12 11 -12 5 0 7 -5 3 -12 -5 -8 -13 -4 -27 13 l-20 24 8 -25
c4 -14 4 -22 0 -18 -5 4 -15 2 -23 -5 -13 -10 -15 -9 -8 8 4 11 8 25 9 30 3
15 -26 12 -29 -3 -1 -7 0 -8 3 -2 2 5 9 10 15 10 6 0 3 -11 -6 -25 -9 -14 -13
-25 -8 -25 5 0 9 -14 10 -30 0 -17 -4 -28 -9 -25 -15 10 -10 -1 7 -15 8 -8 14
-9 13 -4 -4 21 2 35 11 29 6 -4 8 -10 5 -15 -3 -5 -1 -12 5 -15 6 -4 9 -1 8 6
-2 6 3 14 11 17 8 2 11 0 7 -6 -3 -6 -1 -14 5 -17 15 -10 24 2 11 17 -15 19
-15 30 0 40 9 7 7 8 -8 4 -14 -5 -21 -2 -21 9 0 8 7 14 15 13 25 -5 75 -55 69
-70 -4 -9 -6 -8 -6 4 -1 10 -10 22 -21 28 -17 9 -20 8 -20 -9 0 -11 5 -23 10
-26 20 -13 9 -23 -20 -20 -19 3 -30 0 -30 -8 0 -9 -2 -9 -8 0 -4 6 -19 11 -32
9 l-25 -3 -1 99 c-1 89 1 98 18 98 10 0 17 -6 15 -12 -1 -7 9 -14 23 -15 24
-2 24 -2 2 5 -13 4 -23 12 -22 17 1 6 -7 12 -17 15 -15 4 -18 17 -20 67 -1 49
1 61 12 57 8 -3 15 -11 17 -18 2 -7 10 -5 22 8 17 17 17 19 2 13 -10 -4 -26
-2 -36 3 -17 9 -19 22 -17 115 l2 104 23 -15 c12 -8 22 -11 22 -6 0 5 -10 14
-23 21 -20 11 -23 20 -24 77 -1 44 2 62 9 58 7 -5 8 -2 3 7 -12 19 -14 100 -3
93 5 -3 4 3 -4 15 -10 17 -10 25 0 41 7 12 8 20 2 20 -18 0 -10 27 13 44 l22
17 -22 -11 c-16 -7 -23 -7 -23 0 0 12 -470 15 -471 3z m1504 -478 c11 2 14 -1
10 -8 -4 -7 -8 -17 -9 -23 -2 -13 -54 -67 -54 -56 0 4 -4 13 -9 21 -8 12 -12
12 -24 2 -12 -9 -17 -9 -22 0 -9 13 13 29 30 23 13 -5 37 18 34 32 -3 20 2 26
14 17 6 -6 20 -9 30 -8z m400 2 c4 3 13 0 22 -7 12 -10 15 -10 15 1 0 8 6 5
14 -7 10 -12 11 -22 5 -29 -7 -6 -13 -5 -18 3 -6 10 -10 10 -20 -2 -12 -15
-45 -11 -36 4 3 4 -2 13 -10 20 -8 7 -12 16 -9 22 4 5 11 5 18 -1 7 -6 16 -8
19 -4z m-83 -7 c0 -5 -5 -10 -11 -10 -5 0 -7 5 -4 10 3 6 8 10 11 10 2 0 4 -4
4 -10z m158 -53 c8 -9 3 -12 -20 -12 -27 -1 -28 0 -12 12 22 16 19 16 32 0z
m-967 -99 c-41 -43 -59 -41 -21 2 11 12 17 27 13 33 -3 5 -2 7 3 4 6 -3 16 -2
24 3 30 19 21 -1 -19 -42z m83 23 c-2 -3 -12 3 -22 13 -16 17 -16 18 5 5 12
-7 20 -15 17 -18z m1152 -33 c3 -4 -1 -5 -10 -4 -8 1 -18 5 -22 8 -3 4 1 5 10
4 8 -1 18 -5 22 -8z m268 -140 c-3 -4 -11 -5 -19 -1 -21 7 -19 12 4 10 11 0
18 -5 15 -9z m-2999 -43 c6 0 9 -9 7 -20 -2 -11 -4 -26 -4 -32 -1 -9 -5 -10
-14 -2 -7 6 -19 7 -26 3 -10 -5 -10 -4 -1 6 12 13 6 43 -7 35 -5 -3 -12 0 -16
6 -4 7 -3 9 4 5 6 -3 13 -2 17 4 4 6 12 7 18 3 7 -4 17 -8 22 -8z m1115 -15
c8 -5 11 -10 5 -10 -5 0 -21 10 -35 21 -24 20 -5 13 30 -11z m-95 0 c-3 -5 2
-13 11 -18 15 -8 15 -10 0 -15 -10 -4 -19 -1 -22 8 -4 8 -11 12 -16 9 -6 -4
-5 3 2 15 6 12 15 19 21 16 5 -4 7 -10 4 -15z m156 3 c13 -16 12 -17 -3 -4
-17 13 -22 21 -14 21 2 0 10 -8 17 -17z m-1318 -10 c-7 -2 -13 -9 -13 -14 0
-6 4 -8 9 -5 5 3 9 -6 9 -19 0 -14 -5 -28 -11 -32 -5 -3 -7 0 -5 8 3 8 1 22
-4 32 -10 20 -3 37 15 36 9 0 9 -2 0 -6z m1297 -18 c-10 -12 -10 -18 0 -30 9
-10 9 -15 1 -15 -6 0 -11 5 -11 11 0 5 -4 8 -8 5 -4 -2 -9 4 -9 15 -1 11 2 17
8 14 5 -4 9 -1 9 4 0 6 5 11 11 11 8 0 8 -5 -1 -15z m30 -9 c0 -3 -4 -8 -10
-11 -5 -3 -10 -1 -10 4 0 6 5 11 10 11 6 0 10 -2 10 -4z m-1512 -79 c11 -12
12 -17 4 -17 -8 0 -10 -5 -6 -12 5 -9 2 -9 -9 1 -18 14 -20 12 -11 -13 3 -9 9
-14 13 -11 4 2 8 -2 8 -9 0 -9 -9 -13 -24 -10 -18 4 -23 1 -17 -8 5 -7 -5 -5
-20 6 -24 15 -28 16 -23 3 4 -11 2 -14 -9 -10 -17 6 -19 23 -3 23 6 0 9 7 6
15 -4 8 -2 17 3 20 6 4 10 11 10 17 0 7 -5 6 -14 -1 -12 -10 -14 -9 -11 6 2
10 4 18 4 19 1 0 19 0 42 -1 22 -1 48 -9 57 -18z m3673 -24 c13 -16 12 -17 -3
-4 -17 13 -22 21 -14 21 2 0 10 -8 17 -17z m-20 -20 c13 -16 12 -17 -3 -4 -17
13 -22 21 -14 21 2 0 10 -8 17 -17z m-23 -28 c-3 -3 -9 2 -12 12 -6 14 -5 15
5 6 7 -7 10 -15 7 -18z m-3749 -59 c0 -7 -2 -6 -6 2 -2 6 -9 12 -14 12 -6 0
-7 -4 -4 -10 3 -5 1 -10 -4 -10 -13 0 -13 3 -5 24 5 13 9 14 20 5 8 -6 14 -17
13 -23z m-81 -27 c10 -13 10 -18 0 -22 -8 -3 -14 5 -14 20 -1 13 -1 23 0 21 1
-2 7 -10 14 -19z m3998 9 c3 -4 -1 -5 -10 -4 -8 1 -18 5 -22 8 -3 4 1 5 10 4
8 -1 18 -5 22 -8z m32 -43 c-3 -3 -9 2 -12 12 -6 14 -5 15 5 6 7 -7 10 -15 7
-18z m-3398 1 c0 -2 -7 -7 -16 -10 -8 -3 -12 -2 -9 4 6 10 25 14 25 6z m3487
-91 c18 19 24 19 17 0 -6 -14 -18 -19 -36 -16 -5 0 -8 -3 -8 -9 0 -5 -5 -10
-11 -10 -8 0 -7 6 2 17 12 15 12 16 -4 10 -10 -4 -16 -3 -12 2 3 5 1 12 -5 16
-5 3 -10 10 -10 15 0 5 12 -2 26 -15 23 -21 28 -22 41 -10z m-3983 -47 c-8
-13 10 -10 25 5 11 9 10 7 0 -10 -17 -28 -21 -28 -36 -5 -9 15 -8 19 3 19 7 0
11 -4 8 -9z m47 -11 c-10 -9 -11 -8 -5 6 3 10 9 15 12 12 3 -3 0 -11 -7 -18z
m-53 -33 c5 -9 13 -14 18 -12 5 1 10 -8 11 -22 2 -24 2 -24 -5 -2 -4 13 -11
23 -15 22 -4 0 -15 6 -23 15 -9 8 -11 15 -5 15 5 0 14 -7 19 -16z m52 6 c0 -5
-4 -10 -10 -10 -5 0 -10 5 -10 10 0 6 5 10 10 10 6 0 10 -4 10 -10z m-60 -34
c0 -2 -7 -7 -16 -10 -8 -3 -12 -2 -9 4 6 10 25 14 25 6z m2574 -44 c3 -5 -1
-9 -9 -9 -8 0 -12 4 -9 9 3 4 7 8 9 8 2 0 6 -4 9 -8z m76 -2 c0 -5 -5 -10 -11
-10 -5 0 -7 5 -4 10 3 6 8 10 11 10 2 0 4 -4 4 -10z m95 1 c-9 -8 -36 -10 -30
-2 2 4 11 8 20 8 8 0 13 -3 10 -6z m-152 -28 c-4 -10 -2 -14 4 -10 5 3 10 -1
10 -9 0 -13 -2 -13 -15 0 -8 8 -11 19 -8 25 11 17 16 13 9 -6z m270 -8 c-3 -9
-8 -14 -10 -11 -3 3 -2 9 2 15 9 16 15 13 8 -4z m-318 -5 c3 -5 1 -10 -4 -10
-6 0 -11 5 -11 10 0 6 2 10 4 10 3 0 8 -4 11 -10z m235 6 c0 -2 -8 -10 -17
-17 -16 -13 -17 -12 -4 4 13 16 21 21 21 13z m-353 -31 c0 -8 -4 -12 -9 -9 -5
3 -6 10 -3 15 9 13 12 11 12 -6z m36 -10 c-3 -9 -8 -14 -10 -11 -3 3 -2 9 2
15 9 16 15 13 8 -4z m106 2 c8 -10 7 -14 -2 -14 -8 0 -14 6 -14 14 0 7 1 13 2
13 2 0 8 -6 14 -13z m68 -9 c-3 -8 -6 -5 -6 6 -1 11 2 17 5 13 3 -3 4 -12 1
-19z m68 -7 c3 -6 33 -9 68 -7 34 1 70 -2 81 -7 14 -7 16 -6 11 4 -5 7 -4 10
3 5 17 -10 72 -14 78 -5 2 4 16 4 30 -1 14 -6 29 -8 33 -5 5 2 13 -7 20 -21 7
-15 16 -22 23 -18 7 5 9 2 6 -8 -4 -8 -2 -21 3 -29 5 -9 7 -4 5 16 -1 19 -7
29 -15 27 -9 -2 -11 3 -7 13 3 9 2 13 -4 10 -6 -3 -10 -2 -10 2 0 5 19 9 42 9
40 1 40 1 17 -12 -28 -16 -21 -18 14 -5 27 11 28 6 9 -40 -6 -15 -14 -29 -19
-31 -4 -3 -2 -3 6 -1 7 2 11 -2 8 -10 -3 -8 3 -14 15 -14 16 -2 17 1 7 13 -10
12 -9 13 5 8 9 -3 16 -9 16 -13 0 -4 10 -8 23 -8 12 -1 53 -3 91 -5 63 -3 69
-5 72 -25 2 -13 -1 -23 -7 -23 -5 0 -7 5 -3 12 5 7 3 8 -5 4 -9 -6 -9 -12 3
-25 19 -20 20 -31 5 -31 -5 0 -7 5 -3 12 4 7 3 8 -4 4 -22 -14 9 -44 40 -40
19 2 26 -1 22 -8 -5 -7 -2 -8 7 -3 7 5 23 10 36 11 17 2 23 -2 23 -17 0 -10 6
-19 13 -20 10 0 10 -2 0 -6 -7 -2 -13 -14 -13 -24 0 -12 -4 -17 -11 -14 -6 4
-5 -2 3 -14 13 -21 31 -25 96 -21 32 2 32 1 32 -44 0 -55 -2 -62 -15 -58 -5 1
-1 -4 9 -13 10 -8 23 -12 27 -9 11 6 11 1 3 -20 -3 -9 -11 -13 -18 -9 -6 3 -7
2 -3 -2 4 -5 27 -10 51 -10 39 -2 43 0 38 19 -5 18 -7 18 -10 4 -2 -11 -11
-17 -22 -15 -23 4 -39 17 -21 17 7 0 9 5 6 10 -3 6 -1 10 4 10 6 0 11 -6 11
-12 0 -10 2 -10 8 -1 4 7 17 11 29 10 13 -1 19 -5 14 -12 -4 -5 -6 -25 -4 -42
4 -42 -23 -60 -56 -37 -12 9 -19 20 -16 25 10 15 -5 10 -23 -8 -16 -16 -16
-16 2 -10 13 5 17 3 13 -7 -4 -11 -1 -13 10 -9 10 4 14 2 10 -4 -7 -11 26 -10
54 1 13 6 16 -4 16 -70 0 -66 2 -78 17 -80 24 -3 28 -8 20 -27 -3 -9 -12 -13
-20 -10 -8 3 -14 -1 -14 -11 0 -10 6 -14 18 -10 10 3 8 0 -5 -8 l-23 -13 21
-13 c24 -15 41 -6 19 9 -12 9 -12 10 3 5 15 -5 17 -2 12 15 -4 11 -1 27 6 36
11 13 10 18 -10 34 -13 11 -21 22 -17 26 5 5 46 -33 46 -44 0 -2 -5 -13 -10
-24 -8 -13 -7 -25 1 -40 6 -12 7 -19 2 -16 -4 3 -16 -6 -26 -19 -20 -26 -13
-32 12 -10 14 12 19 10 38 -20 l22 -34 -23 17 c-13 10 -22 21 -19 26 7 12 -6
8 -33 -9 -13 -9 -27 -14 -31 -10 -3 3 -2 6 3 6 14 0 15 38 2 46 -7 5 -9 1 -5
-9 3 -10 2 -17 -2 -17 -8 0 -8 -20 -1 -40 1 -3 1 -18 0 -34 -1 -21 2 -26 12
-21 7 3 4 -1 -6 -9 -23 -18 -15 -21 17 -5 20 9 20 9 5 -4 -10 -8 -15 -17 -11
-21 4 -4 -1 -4 -12 0 -20 8 -20 8 -1 -20 10 -16 13 -25 7 -22 -12 8 -13 1 -15
-94 -1 -42 -5 -54 -15 -52 -12 3 -12 1 0 -14 12 -16 12 -17 -3 -11 -10 3 -18
2 -18 -3 0 -6 8 -10 18 -10 11 0 18 -7 18 -20 0 -11 -3 -20 -7 -20 -3 0 -5
-12 -2 -27 3 -24 2 -25 -6 -8 -7 14 -10 16 -11 5 -1 -10 -4 -9 -10 5 -5 11 -9
15 -9 8 -1 -7 -8 -10 -16 -7 -8 4 -15 1 -15 -4 0 -6 -9 -9 -20 -7 -16 3 -20
-2 -20 -26 0 -16 5 -29 13 -29 9 0 9 -2 0 -8 -7 -4 -14 -31 -15 -60 -2 -29 -7
-50 -13 -49 -5 2 -10 15 -9 30 1 21 -2 25 -15 17 -10 -5 -23 -5 -31 0 -14 9
-40 3 -40 -10 0 -4 18 -7 40 -6 25 1 39 -2 37 -8 -2 -6 -22 -11 -45 -10 -31 0
-39 -3 -31 -12 7 -8 6 -14 -2 -19 -8 -6 -8 -9 1 -15 9 -6 9 -10 -2 -20 -9 -8
-12 -30 -10 -66 3 -46 1 -54 -13 -54 -10 0 -24 8 -31 18 -12 14 -13 15 -8 1 3
-10 1 -20 -5 -24 -6 -3 -11 -2 -11 3 0 5 -11 7 -23 5 -21 -4 -24 -10 -23 -46
1 -23 5 -48 9 -54 6 -9 3 -11 -7 -7 -9 3 -16 1 -16 -4 0 -6 -9 -10 -20 -9 -11
1 -20 5 -20 9 0 4 -5 8 -11 8 -5 0 -7 -5 -4 -10 4 -7 -3 -9 -19 -6 -14 3 -26
1 -26 -2 0 -4 -28 -6 -61 -5 -55 2 -60 1 -43 -13 17 -12 17 -13 1 -8 -13 5
-16 2 -10 -12 4 -12 3 -15 -5 -10 -14 8 1 -38 21 -64 9 -12 9 -13 -3 -3 -10 9
-17 10 -27 2 -10 -9 -13 -8 -13 2 0 11 -2 11 -10 -1 -9 -13 -11 -13 -20 0 -5
8 -10 11 -10 5 0 -10 -13 -11 -123 -14 -46 -1 -53 -4 -53 -21 0 -11 6 -20 13
-20 7 0 13 -5 13 -10 0 -7 -6 -7 -20 0 -12 7 -20 7 -20 1 0 -5 10 -13 22 -17
19 -6 19 -7 4 -16 -9 -5 -14 -13 -12 -17 7 -10 -266 -8 -283 3 -9 6 -12 5 -8
-1 4 -6 -49 -9 -139 -9 -133 0 -144 2 -138 18 4 14 1 17 -13 12 -14 -5 -15 -4
-4 4 8 6 11 17 8 26 -3 8 0 22 8 30 13 12 7 15 -45 18 -48 2 -60 0 -60 -12 -1
-13 -2 -13 -10 1 -6 10 -23 15 -57 14 -57 -1 -70 12 -69 70 l1 41 -55 1 c-87
3 -115 8 -112 22 1 7 -2 10 -8 6 -6 -3 -8 -10 -5 -15 3 -5 -8 -8 -24 -8 -21 1
-28 5 -24 16 3 7 0 18 -8 23 -8 5 -9 9 -3 9 6 0 11 16 11 35 0 38 -6 42 -26
23 -10 -11 -12 -10 -9 2 2 11 -6 13 -34 11 -49 -3 -65 7 -41 25 12 10 13 12 3
9 -13 -4 -15 3 -13 38 l2 44 -47 -2 c-56 -2 -72 2 -72 21 0 8 6 14 13 14 7 0
8 3 2 8 -13 10 -20 56 -7 48 6 -4 14 -1 18 5 5 8 3 9 -5 5 -8 -5 -14 0 -18 13
-3 12 -10 18 -17 14 -7 -4 -6 -1 1 9 14 17 13 138 -1 138 -4 0 -6 -11 -4 -25
3 -14 1 -25 -4 -25 -5 0 -7 -4 -4 -9 4 -5 -2 -8 -11 -7 -19 3 -32 36 -14 36 6
0 8 -8 4 -17 -5 -15 -3 -16 8 -5 10 9 10 15 1 24 -9 9 -15 9 -24 0 -18 -18
-49 -15 -42 3 4 8 1 15 -6 15 -8 0 -9 4 -3 13 9 11 9 33 0 87 -3 14 -1 33 4
42 6 11 5 18 -4 21 -9 3 -9 7 2 20 11 14 11 17 0 17 -11 0 -11 2 1 10 8 5 11
10 6 10 -6 0 -2 6 9 13 14 11 15 16 5 22 -9 5 -11 4 -6 -3 4 -7 1 -12 -8 -12
-12 0 -13 5 -7 23 6 14 16 21 27 19 15 -2 16 -1 5 7 -8 5 -21 7 -30 4 -13 -5
-13 -3 2 13 12 13 20 15 25 8 8 -13 44 -15 36 -2 -3 4 6 8 19 8 22 0 24 4 23
44 -1 24 -4 42 -8 39 -5 -2 -8 1 -8 8 0 8 -4 8 -15 -1 -8 -7 -12 -17 -9 -22 4
-6 10 -5 16 3 8 11 9 11 5 -1 -2 -8 0 -25 4 -37 6 -17 5 -21 -6 -16 -8 3 -13
8 -11 12 3 4 1 13 -3 20 -6 9 -11 10 -15 2 -4 -6 -3 -11 2 -11 5 0 9 -8 9 -17
0 -15 -1 -15 -10 -2 -9 14 -12 14 -29 -3 -22 -22 -42 -15 -30 10 4 9 7 38 7
64 -1 43 0 45 13 27 11 -16 17 -17 28 -8 8 6 14 8 14 3 0 -4 6 1 14 12 14 18
14 18 13 0 -1 -10 3 -21 9 -23 6 -2 11 13 12 39 1 31 -1 39 -8 28 -5 -8 -10
-10 -10 -4 0 6 3 14 7 18 9 9 13 31 14 99 1 31 5 60 11 63 5 3 4 12 -4 22 -11
13 -11 14 1 7 11 -6 13 -4 8 8 -4 10 1 21 11 27 15 10 14 11 -5 7 -19 -4 -21
-2 -13 13 6 11 16 22 23 26 7 5 6 0 -3 -11 -14 -17 -13 -18 3 -12 11 4 16 3
12 -3 -3 -6 -1 -10 6 -10 6 0 9 8 6 20 -4 16 -2 18 13 10 24 -13 33 -13 25 0
-3 6 1 7 9 4 13 -5 16 2 17 32 1 22 1 45 0 53 -2 8 3 10 11 6 10 -6 11 -5 1 6
-7 7 -13 16 -13 20 0 12 75 8 82 -4 6 -9 8 -8 8 1 0 7 5 10 10 7 6 -3 10 -1
10 5 0 6 4 9 9 6 10 -7 9 20 -2 30 -12 12 -8 26 5 18 7 -4 8 -3 4 4 -16 26
-15 52 2 53 59 5 88 3 94 -6 5 -6 8 -3 8 6 0 16 36 19 59 4 7 -4 8 1 4 12 -6
16 -5 17 13 3 15 -11 16 -11 7 0 -7 8 -13 19 -13 25 1 5 10 -1 22 -15 14 -16
19 -19 15 -7 -4 10 -2 17 6 17 8 0 7 4 -3 10 -12 8 -13 11 -1 19 9 6 10 11 2
15 -6 4 -8 13 -4 19 4 7 -1 6 -10 -2 -10 -8 -20 -11 -24 -7 -3 3 0 6 7 6 7 0
11 3 8 6 -3 3 -16 -1 -27 -8 -18 -11 -23 -11 -31 2 -5 8 -10 11 -11 5 -6 -39
-5 -54 2 -49 4 2 6 11 2 19 -4 11 -1 13 11 9 18 -7 17 -24 -4 -42 -13 -11 -13
-12 0 -10 8 2 19 8 23 13 5 6 7 4 4 -5 -3 -13 -15 -16 -45 -11 -4 0 -8 20 -8
44 l1 43 55 2 c30 1 83 2 116 3 56 2 61 4 56 22 -3 14 -1 18 6 13 7 -4 12 -2
12 3 0 6 -4 11 -8 11 -4 0 -8 9 -9 20 -1 11 2 18 6 16 4 -3 13 0 21 6 12 8 12
9 -2 4 -10 -3 -20 -1 -23 4 -4 6 10 10 32 11 21 0 65 2 98 4 36 2 66 -1 74 -8
12 -10 13 -9 6 2 -6 11 -4 13 8 8 9 -3 19 -2 22 3 4 7 13 7 24 0 10 -5 21 -7
24 -4 3 3 58 6 123 6 71 0 111 4 103 9 -9 6 -10 9 -2 9 6 0 14 -4 18 -9z
m-2522 -24 c4 3 7 1 7 -5 0 -7 -7 -12 -15 -12 -8 0 -15 6 -15 13 0 8 -4 7 -10
-3 -5 -8 -10 -10 -10 -4 0 17 12 25 25 14 7 -5 15 -7 18 -3z m2987 -2 c7 -9 8
-15 2 -15 -5 0 -12 7 -16 15 -3 8 -4 15 -2 15 2 0 9 -7 16 -15z m-2490 -5 c0
-5 -5 -10 -11 -10 -5 0 -7 5 -4 10 3 6 8 10 11 10 2 0 4 -4 4 -10z m30 0 c0
-5 -5 -10 -11 -10 -5 0 -7 5 -4 10 3 6 8 10 11 10 2 0 4 -4 4 -10z m2496 -22
c5 -7 3 -8 -6 -3 -9 5 -10 1 -6 -16 6 -20 5 -21 -4 -6 -6 9 -8 22 -5 27 8 13
12 13 21 -2z m-1116 -14 c0 -8 -19 -13 -24 -6 -3 5 1 9 9 9 8 0 15 -2 15 -3z
m1064 -3 c3 -5 0 -11 -7 -14 -8 -3 -14 1 -14 9 0 16 13 19 21 5z m51 -41 c3
-5 1 -10 -4 -10 -6 0 -11 5 -11 10 0 6 2 10 4 10 3 0 8 -4 11 -10z m-1169 -76
c0 -12 -5 -19 -11 -16 -5 4 -13 7 -17 7 -12 0 -21 15 -9 15 7 0 10 4 7 8 -2 4
4 8 14 8 12 0 17 -7 16 -22z m2169 17 c-9 -8 -36 -10 -30 -2 2 4 11 8 20 8 8
0 13 -3 10 -6z m-15 -37 c0 -8 -19 -13 -24 -6 -3 5 1 9 9 9 8 0 15 -2 15 -3z
m40 -20 c0 -8 -19 -13 -24 -6 -3 5 1 9 9 9 8 0 15 -2 15 -3z m-714 -86 c3 -4
-1 -5 -10 -4 -8 1 -18 5 -22 8 -3 4 1 5 10 4 8 -1 18 -5 22 -8z m794 -118 c0
-5 -2 -10 -4 -10 -3 0 -8 5 -11 10 -3 6 -1 10 4 10 6 0 11 -4 11 -10z m1 -83
c-6 -8 -9 -16 -6 -19 3 -2 -2 -5 -10 -5 -13 0 -13 3 2 19 19 21 31 25 14 5z
m56 -30 c0 -8 -6 -14 -14 -14 -9 0 -10 4 -2 14 6 7 12 13 14 13 1 0 2 -6 2
-13z m-44 -42 c-3 -9 -8 -14 -10 -11 -3 3 -2 9 2 15 9 16 15 13 8 -4z m40 0
c-3 -9 -8 -14 -10 -11 -3 3 -2 9 2 15 9 16 15 13 8 -4z m-620 -40 c-7 -21 -12
-19 -10 4 0 11 5 18 9 15 4 -3 5 -11 1 -19z m24 -38 c0 -7 -9 -14 -20 -14 -19
-2 -19 -2 -1 12 11 8 19 15 20 15 0 0 1 -6 1 -13z m-3231 -72 c-1 -11 -7 -21
-13 -21 -7 -1 -18 -2 -25 -3 -7 -1 -5 -8 5 -19 14 -15 15 -19 2 -19 -8 0 -12
4 -9 9 3 4 1 8 -5 8 -5 0 -13 -10 -17 -22 -9 -29 -22 -4 -19 37 1 17 -2 35 -6
40 -4 6 10 10 40 10 42 1 48 -2 47 -20z m3264 -30 c0 -11 -14 7 -31 40 -7 13
-3 12 10 -5 11 -14 21 -29 21 -35z m-2255 35 c3 -6 -1 -7 -9 -4 -18 7 -21 14
-7 14 6 0 13 -4 16 -10z m-32 -28 c-10 -10 -20 -17 -22 -16 -6 5 20 34 30 34
5 0 1 -8 -8 -18z m14 -9 c-4 -3 -1 -11 6 -17 7 -6 10 -10 8 -9 -2 2 -9 -5 -16
-14 -9 -13 -14 -13 -20 -3 -6 9 -4 11 4 5 9 -5 12 -1 11 11 -3 26 -1 34 7 34
3 0 3 -3 0 -7z m2269 -39 c3 -15 -24 -13 -30 3 -3 7 -3 20 1 29 5 14 7 14 17
-2 5 -11 11 -24 12 -30z m-6 -34 c0 -5 -4 -10 -10 -10 -5 0 -10 5 -10 10 0 6
5 10 10 10 6 0 10 -4 10 -10z m-3918 -22 c-2 -10 1 -18 7 -18 7 0 10 4 6 9 -7
12 12 24 42 27 24 3 31 -10 12 -21 -6 -5 -4 -12 8 -21 17 -13 17 -14 -2 -7
-16 6 -18 4 -9 -8 9 -11 9 -17 -2 -27 -8 -7 -14 -9 -14 -4 0 5 -7 9 -15 9 -10
0 -14 -6 -10 -16 5 -12 3 -13 -6 -4 -6 6 -17 10 -23 9 -6 -2 -8 -1 -3 1 4 3 7
12 7 21 0 13 -2 14 -9 4 -7 -11 -9 -10 -14 3 -4 9 -3 13 2 10 5 -3 12 -1 16 5
3 5 2 10 -4 10 -6 0 -7 7 -4 17 5 12 3 14 -7 8 -8 -5 -11 -4 -7 2 11 18 35 11
29 -9z m4594 7 c-6 -17 3 -47 13 -41 9 6 8 -131 -1 -140 -10 -10 -10 -27 0
-20 4 2 8 -4 8 -14 0 -10 -4 -16 -8 -14 -10 6 -10 -10 -1 -20 9 -8 11 -186 3
-181 -3 1 -14 -7 -25 -18 l-20 -20 22 12 c36 18 40 12 8 -15 -16 -13 -23 -22
-14 -19 9 3 22 -1 29 -10 10 -12 10 -15 0 -15 -10 0 -10 -3 0 -15 14 -17 0
-21 -17 -4 -8 8 -13 8 -17 0 -9 -14 -36 -14 -36 -1 0 6 6 9 13 8 8 -2 12 13
11 50 0 41 3 52 14 50 8 -2 16 3 18 10 1 7 0 8 -2 3 -3 -6 -16 2 -29 17 -18
21 -21 30 -12 42 11 13 10 13 -6 1 -17 -13 -17 -15 5 -39 13 -14 17 -22 9 -17
-10 5 -12 4 -7 -4 4 -6 4 -10 -1 -9 -4 2 -8 -1 -8 -7 0 -5 4 -9 8 -7 4 1 3 -7
-3 -17 -13 -24 -39 -17 -37 10 1 10 5 19 10 19 5 0 3 8 -4 17 -8 10 -9 14 -2
10 6 -4 14 -3 18 3 3 5 1 10 -4 10 -6 0 -11 7 -11 15 0 8 5 15 11 15 5 0 7 5
4 10 -4 6 -11 8 -16 5 -5 -3 -6 1 -3 9 3 9 9 16 13 16 4 0 7 9 8 20 1 13 -2
18 -10 14 -7 -4 -9 -4 -5 1 4 4 3 14 -3 21 -6 8 -6 14 0 18 5 4 12 2 16 -4 3
-5 12 -10 18 -10 7 1 -1 12 -18 26 -20 17 -24 22 -10 17 18 -6 19 -5 6 10 -8
10 -11 20 -8 24 4 3 1 13 -6 22 -10 14 -10 14 5 3 15 -12 17 -11 15 7 -1 12
-6 21 -11 21 -5 0 -6 3 -3 6 3 4 2 16 -4 27 -7 13 -7 17 -1 13 6 -3 13 -2 17
4 3 5 1 10 -4 10 -8 0 -7 7 1 19 7 11 16 18 20 15 4 -3 5 3 2 13 -5 15 -4 16
5 3 10 -13 12 -13 20 0 5 8 7 18 5 22 -3 4 0 8 6 8 7 0 10 -7 6 -15z m-67 -31
c-14 -13 -15 -13 -13 8 1 13 3 25 3 28 1 2 6 -1 13 -8 10 -9 9 -16 -3 -28z
m91 16 c0 -5 -4 -10 -10 -10 -5 0 -10 5 -10 10 0 6 5 10 10 10 6 0 10 -4 10
-10z m-719 -41 c20 -17 21 -19 4 -11 -11 5 -33 7 -50 6 -28 -3 -29 -2 -11 12
26 18 29 18 57 -7z m-2237 -30 c-3 -5 -10 -7 -15 -3 -5 3 -7 10 -3 15 3 5 10
7 15 3 5 -3 7 -10 3 -15z m2230 -4 c-4 -8 -10 -15 -15 -15 -4 0 -6 7 -3 15 4
8 10 15 15 15 4 0 6 -7 3 -15z m36 -10 c0 -8 -2 -15 -4 -15 -2 0 -6 7 -10 15
-3 8 -1 15 4 15 6 0 10 -7 10 -15z m-14 -41 c3 -16 2 -26 -1 -23 -3 4 -8 19
-11 35 -3 16 -2 26 1 23 3 -4 8 -19 11 -35z m-29 10 c-3 -3 -12 -4 -19 -1 -8
3 -5 6 6 6 11 1 17 -2 13 -5z m-4172 -23 c3 -5 2 -12 -3 -15 -5 -3 -9 1 -9 9
0 17 3 19 12 6z m4182 -17 c2 -14 1 -15 -5 -4 -4 8 -15 16 -26 18 -12 2 -16
-1 -10 -9 4 -8 3 -10 -5 -5 -17 11 -3 26 22 22 13 -2 23 -11 24 -22z m-13 -20
c3 -8 2 -12 -4 -9 -6 3 -10 10 -10 16 0 14 7 11 14 -7z m-34 -14 c-6 -11 -13
-20 -16 -20 -2 0 0 9 6 20 6 11 13 20 16 20 2 0 0 -9 -6 -20z m70 10 c0 -5 -5
-10 -11 -10 -5 0 -7 5 -4 10 3 6 8 10 11 10 2 0 4 -4 4 -10z m-3080 -40 c0 -5
-2 -10 -4 -10 -3 0 -8 5 -11 10 -3 6 -1 10 4 10 6 0 11 -4 11 -10z m3057 -35
c0 -8 -4 -12 -9 -9 -5 3 -6 10 -3 15 9 13 12 11 12 -6z m-3027 -1 c0 -8 -19
-13 -24 -6 -3 5 1 9 9 9 8 0 15 -2 15 -3z m2994 -2 c3 -5 -1 -9 -9 -9 -8 0
-12 4 -9 9 3 4 7 8 9 8 2 0 6 -4 9 -8z m-3369 -11 c-3 -5 4 -13 16 -16 11 -4
18 -9 16 -12 -8 -7 -47 16 -47 27 0 6 5 10 11 10 5 0 8 -4 4 -9z m400 -10 c3
-5 2 -12 -3 -15 -5 -3 -9 1 -9 9 0 17 3 19 12 6z m-410 -21 c3 -6 -1 -7 -9 -4
-18 7 -21 14 -7 14 6 0 13 -4 16 -10z m202 -36 c-8 -8 12 -46 21 -40 4 2 16
-8 27 -23 l20 -26 -29 23 c-23 18 -31 20 -39 10 -7 -10 -8 -9 -4 3 3 9 1 22
-3 29 -9 14 -4 30 7 30 4 0 3 -3 0 -6z m27 -72 c2 -4 -5 -9 -17 -9 -17 -2 -19
0 -7 7 18 12 18 12 24 2z m-856 -37 c-3 -3 -9 2 -12 12 -6 14 -5 15 5 6 7 -7
10 -15 7 -18z m-73 5 c4 -6 11 -7 17 -4 7 4 8 2 4 -5 -6 -9 -12 -9 -24 1 -10
7 -19 14 -21 15 -2 2 1 3 7 3 6 0 14 -5 17 -10z m1853 2 c13 11 14 11 7 -2 -5
-8 -11 -24 -12 -34 -2 -11 -6 -22 -10 -25 -3 -3 -3 4 0 16 3 13 1 26 -4 29 -5
3 -9 11 -8 17 0 8 2 8 6 -1 4 -10 8 -10 21 0z m2137 -2 c4 -6 -1 -7 -12 -3
-15 6 -16 4 -6 -8 10 -12 8 -15 -7 -15 -15 0 -16 4 -9 18 11 20 25 23 34 8z
m-4000 -19 c3 -5 0 -13 -6 -17 -7 -4 -9 -3 -5 4 3 5 0 13 -6 15 -9 4 -10 6 -1
6 6 1 14 -3 18 -8z m65 -1 c0 -5 -4 -10 -10 -10 -5 0 -10 5 -10 10 0 6 5 10
10 10 6 0 10 -4 10 -10z m1870 -15 c0 -8 -4 -15 -10 -15 -5 0 -7 7 -4 15 4 8
8 15 10 15 2 0 4 -7 4 -15z m-1901 -12 c0 -11 -3 -13 -6 -5 -2 6 -10 9 -15 6
-7 -4 -8 -2 -4 4 11 18 26 14 25 -5z m47 1 c-3 -18 -34 -39 -43 -30 -4 3 -1 6
6 6 7 0 9 4 6 10 -3 6 1 7 10 4 9 -4 15 -3 14 2 -2 13 0 24 5 24 2 0 3 -7 2
-16z m-76 -25 c0 -6 -4 -7 -10 -4 -5 3 -10 11 -10 16 0 6 5 7 10 4 6 -3 10
-11 10 -16z m1895 12 c-3 -5 -1 -12 5 -16 5 -3 10 -11 10 -18 0 -6 -7 -2 -15
9 -17 23 -19 34 -4 34 5 0 8 -4 4 -9z m2090 -1 c-3 -5 -12 -10 -18 -10 -7 0
-6 4 3 10 19 12 23 12 15 0z m-2115 -20 c0 -4 -7 -7 -15 -6 -23 3 -26 12 -5
13 11 1 20 -2 20 -7z m-1584 -50 c3 0 0 8 -7 18 -11 14 -10 14 8 -2 13 -11 21
-27 19 -39 -3 -23 -34 -31 -53 -15 -15 12 -17 -3 -3 -20 7 -9 7 -9 -2 -2 -15
13 -31 13 -23 0 3 -5 0 -7 -8 -4 -12 4 -10 11 10 30 13 13 29 21 35 18 6 -4 8
-1 6 7 -3 8 -10 13 -16 12 -5 -1 -13 5 -16 14 -6 14 -4 14 18 -1 14 -9 28 -16
32 -16z m-70 -26 c-9 -8 -11 -9 -6 -2 13 15 13 31 0 23 -6 -4 -7 1 -3 11 5 15
7 15 16 -1 7 -12 5 -21 -7 -31z m3677 -12 c-2 -6 4 -9 12 -6 8 4 15 1 15 -5 0
-6 -4 -11 -10 -11 -5 0 -7 -8 -3 -17 4 -12 0 -11 -11 5 -10 12 -14 27 -10 34
4 6 3 8 -4 4 -6 -3 -10 -15 -9 -26 1 -10 6 -16 12 -12 5 3 4 -2 -4 -11 -15
-19 -26 -23 -16 -6 4 6 1 10 -6 8 -29 -3 -35 2 -35 29 0 25 3 27 35 26 21 -1
35 -6 34 -12z m-3362 -69 c13 -16 12 -17 -3 -4 -10 7 -18 15 -18 17 0 8 8 3
21 -13z m9 -67 c0 -3 -4 -8 -10 -11 -5 -3 -10 -1 -10 4 0 6 5 11 10 11 6 0 10
-2 10 -4z m4135 -36 c3 -5 1 -10 -4 -10 -6 0 -11 5 -11 10 0 6 2 10 4 10 3 0
8 -4 11 -10z m39 -15 c-3 -7 -12 -16 -19 -19 -9 -3 -12 0 -8 10 3 7 9 14 15
14 5 0 6 5 2 12 -4 7 -3 8 4 4 6 -4 9 -13 6 -21z m-69 -13 c-3 -3 -11 0 -18 7
-9 10 -8 11 6 5 10 -3 15 -9 12 -12z m35 -33 c0 -5 -4 -8 -9 -4 -6 3 -14 -3
-20 -12 -6 -10 -11 -13 -11 -7 0 12 20 34 32 34 4 0 8 -5 8 -11z m30 -23 c0
-2 -7 -6 -15 -10 -8 -3 -15 -1 -15 4 0 6 7 10 15 10 8 0 15 -2 15 -4z m-3762
-38 c9 -9 12 -9 12 0 0 7 10 10 22 8 19 -2 23 -9 23 -49 1 -25 -2 -44 -6 -41
-4 2 -11 0 -14 -6 -4 -7 -11 -7 -18 -2 -7 5 -24 8 -38 7 -23 -2 -26 2 -24 29
2 17 4 32 5 34 1 1 4 7 5 12 1 6 3 12 4 15 2 9 17 5 29 -7z m1435 -11 c-2 -4
1 -15 9 -24 8 -11 8 -14 1 -10 -8 5 -11 0 -10 -13 1 -10 7 -22 14 -24 7 -3 13
-11 13 -18 0 -10 -3 -9 -9 1 -8 12 -12 12 -25 2 -11 -9 -16 -10 -16 -2 0 6 5
11 12 11 16 0 1 13 -18 16 -9 1 -13 -3 -11 -10 3 -7 0 -13 -7 -13 -7 0 -13 6
-13 14 0 7 5 13 10 13 6 0 8 2 5 5 -8 8 -39 -6 -33 -15 3 -5 2 -11 -3 -13 -4
-3 -7 16 -7 41 l0 47 47 0 c25 0 44 -3 41 -8z m1146 -23 c4 3 13 -4 20 -16 7
-11 8 -17 2 -13 -6 3 -11 1 -11 -4 0 -6 -5 -11 -11 -11 -8 0 -8 4 0 14 9 10 8
15 -4 20 -8 3 -14 13 -14 23 1 17 2 17 6 0 2 -9 8 -15 12 -13z m41 -9 c0 -5
-5 -3 -10 5 -5 8 -10 20 -10 25 0 6 5 3 10 -5 5 -8 10 -19 10 -25z m-82 4
c-17 -9 -17 -12 -2 -37 l16 -27 -20 24 c-22 27 -19 51 7 51 14 -1 14 -2 -1
-11z m22 -24 c0 -8 -2 -15 -4 -15 -2 0 -6 7 -10 15 -3 8 -1 15 4 15 6 0 10 -7
10 -15z m55 -25 c-3 -5 -12 -10 -18 -10 -7 0 -6 4 3 10 19 12 23 12 15 0z
m-964 -53 c-10 -9 -11 -8 -5 6 3 10 9 15 12 12 3 -3 0 -11 -7 -18z m676 -4 c0
-9 -4 -10 -14 -2 -7 6 -13 12 -13 14 0 1 6 2 13 2 8 0 14 -6 14 -14z m-722 -2
c3 -5 0 -13 -6 -17 -7 -4 -9 -3 -5 4 3 5 0 13 -6 15 -9 4 -10 6 -1 6 6 1 14
-3 18 -8z m-1371 -12 c9 8 16 8 20 2 4 -5 2 -12 -3 -16 -6 -3 -8 -12 -5 -19 3
-9 -4 -13 -23 -11 -22 1 -27 6 -28 28 -2 21 1 25 12 16 9 -9 17 -8 27 0z
m1386 -14 c-7 -8 -16 -15 -21 -15 -5 0 -1 8 9 18 20 22 31 19 12 -3z m764 9
c3 -8 2 -12 -4 -9 -6 3 -10 10 -10 16 0 14 7 11 14 -7z m-48 -32 c-17 -16 -18
-16 -5 5 7 12 15 20 18 17 3 -2 -3 -12 -13 -22z m-661 -4 c6 -5 0 -7 -12 -5
-12 2 -26 7 -30 12 -5 4 -2 5 5 1 7 -4 12 -2 12 5 0 7 3 8 8 3 4 -5 12 -12 17
-16z m-50 -8 c3 -6 -1 -7 -9 -4 -18 7 -21 14 -7 14 6 0 13 -4 16 -10z m2011
-13 c3 -2 -3 -10 -13 -18 -15 -12 -16 -12 -10 4 4 11 3 16 -4 12 -6 -4 -8 -13
-5 -21 3 -8 -2 -18 -11 -21 -9 -4 -19 -1 -21 5 -2 7 -7 10 -12 7 -5 -3 -7 2
-6 11 1 8 8 19 15 23 12 8 59 7 67 -2z m11 -68 c-1 -12 -6 -17 -14 -14 -7 3
-19 7 -26 10 -7 3 -23 -4 -35 -15 -22 -21 -32 -14 -10 8 9 9 9 12 0 12 -7 0
-12 5 -12 10 0 6 10 8 23 5 15 -4 28 -1 37 9 16 20 39 4 37 -25z m-3012 -99
l1 -45 -46 0 -45 0 0 45 0 45 45 0 45 0 0 -45z m2893 19 c2 -8 0 -10 -5 -4 -4
6 -17 11 -28 13 -20 3 -20 2 -1 -13 11 -8 15 -15 9 -15 -14 0 -34 25 -27 33
11 11 48 1 52 -14z m-68 -14 c0 -8 6 -14 12 -12 7 1 13 -7 14 -18 1 -15 0 -16
-3 -2 -3 9 -8 15 -13 12 -5 -3 -14 4 -20 15 -7 13 -7 20 0 20 5 0 10 -7 10
-15z m76 -17 c4 -7 3 -8 -4 -4 -8 5 -12 -1 -12 -14 0 -12 4 -18 10 -15 6 4 7
-1 3 -11 -6 -16 -8 -16 -16 4 -5 11 -7 28 -4 36 8 19 13 20 23 4z m-2834 -80
c-7 -7 -12 -8 -12 -2 0 14 12 26 19 19 2 -3 -1 -11 -7 -17z m50 8 c7 4 8 2 4
-5 -9 -13 -26 -5 -25 12 0 9 2 8 6 -1 2 -6 10 -9 15 -6z m-72 -32 c-1 -4 4
-11 12 -16 11 -8 10 -9 -1 -6 -8 2 -15 15 -17 29 -1 13 0 18 2 12 3 -7 5 -15
4 -19z m50 12 c0 -2 -7 -7 -16 -10 -8 -3 -12 -2 -9 4 6 10 25 14 25 6z m20
-26 c0 -5 -7 -7 -15 -3 -10 3 -15 1 -13 -7 2 -7 -4 -15 -12 -17 -13 -4 -13 -3
0 6 8 6 11 11 7 11 -5 0 -5 5 -2 10 8 13 35 13 35 0z m2620 6 c0 -3 -4 -8 -10
-11 -5 -3 -10 -1 -10 4 0 6 5 11 10 11 6 0 10 -2 10 -4z m-2685 -34 c-3 -3
-11 0 -18 7 -9 10 -8 11 6 5 10 -3 15 -9 12 -12z m2616 -39 c13 -16 12 -17 -3
-4 -10 7 -18 15 -18 17 0 8 8 3 21 -13z m-2436 -2 c3 -5 2 -12 -3 -15 -5 -3
-9 1 -9 9 0 17 3 19 12 6z m-19 -33 c3 -4 -1 -5 -10 -4 -8 1 -18 5 -22 8 -3 4
1 5 10 4 8 -1 18 -5 22 -8z m-36 -38 c0 -5 -4 -10 -10 -10 -5 0 -10 5 -10 10
0 6 5 10 10 10 6 0 10 -4 10 -10z m140 -40 c0 -5 -5 -10 -11 -10 -5 0 -7 5 -4
10 3 6 8 10 11 10 2 0 4 -4 4 -10z m2236 -15 c-1 -8 -5 -17 -8 -21 -5 -4 -4
16 1 34 3 9 9 -1 7 -13z m-2256 -10 c11 -13 10 -14 -4 -9 -9 3 -16 10 -16 15
0 13 6 11 20 -6z m60 -2 c0 -3 -7 -3 -15 1 -8 3 -15 1 -15 -3 0 -5 6 -12 13
-14 9 -4 9 -6 0 -6 -15 -1 -26 16 -18 29 5 9 35 3 35 -7z m2111 -26 c-10 -9
-11 -8 -5 6 3 10 9 15 12 12 3 -3 0 -11 -7 -18z m-2151 -6 c0 -5 -7 -11 -14
-14 -10 -4 -13 -1 -9 9 6 15 23 19 23 5z m2234 -19 c3 -5 -1 -9 -9 -9 -8 0
-12 4 -9 9 3 4 7 8 9 8 2 0 6 -4 9 -8z m-160 -34 c-3 -4 6 -12 18 -19 21 -11
22 -11 9 4 -11 15 -11 17 1 17 10 0 14 -13 14 -48 0 -47 -1 -48 -32 -48 -18 0
-30 4 -28 8 3 4 0 8 -5 8 -6 0 -11 -5 -11 -12 0 -6 -3 -8 -7 -5 -10 11 -12 91
-2 97 13 8 48 7 43 -2z m-187 -125 c0 -7 -4 -13 -8 -13 -4 0 -9 6 -12 13 -3 8
0 14 7 14 7 0 13 -6 13 -14z m-1051 -128 c-1 -8 -5 -17 -8 -21 -5 -4 -4 16 1
34 3 9 9 -1 7 -13z m594 -51 c0 -8 -19 -13 -24 -6 -3 5 1 9 9 9 8 0 15 -2 15
-3z"/>
<path d="M2964 4249 c-11 -12 -13 -19 -5 -19 7 0 9 -4 6 -10 -11 -18 1 -10 22
14 16 19 18 26 8 30 -7 2 -21 -4 -31 -15z m19 -4 c-3 -9 -8 -14 -10 -11 -3 3
-2 9 2 15 9 16 15 13 8 -4z"/>
<path d="M3389 4278 c7 -10 19 -14 29 -11 15 6 16 5 2 -13 -14 -18 -14 -18 2
-5 19 14 14 35 -7 27 -7 -2 -19 1 -26 7 -11 10 -11 9 0 -5z"/>
<path d="M1002 3917 c10 -24 13 -25 21 -12 5 9 6 19 3 22 -3 4 -6 0 -6 -7 0
-9 -5 -7 -15 6 -14 18 -14 17 -3 -9z"/>
<path d="M627 3804 c2 -6 0 -15 -6 -19 -8 -4 -8 -12 -1 -26 13 -23 30 -25 30
-2 0 15 2 14 16 -3 14 -17 14 -16 0 9 -16 26 -12 33 17 28 4 0 7 4 7 9 0 6 -3
10 -7 11 -47 6 -61 5 -56 -7z m19 -16 c-3 -13 -5 -27 -5 -33 -1 -5 -5 -4 -10
4 -6 9 -5 21 2 33 15 24 18 23 13 -4z"/>
<path d="M2865 3240 c-8 -13 4 -32 15 -25 16 10 19 -24 3 -37 -14 -11 -16 -11
-10 4 4 12 2 15 -9 11 -8 -3 -14 -2 -13 3 5 28 -1 34 -20 22 -15 -9 -17 -15
-9 -25 7 -9 7 -18 -3 -30 -8 -9 -9 -14 -2 -10 6 4 14 1 16 -5 4 -10 6 -9 6 1
1 11 4 11 19 0 16 -13 16 -13 0 7 -24 27 -23 42 1 20 17 -15 20 -15 34 -2 8 8
18 12 23 8 5 -4 3 0 -4 9 -6 9 -9 19 -5 22 6 6 -11 11 -29 8 -13 -2 -9 17 5
22 9 4 9 6 0 6 -6 1 -15 -3 -18 -9z m-15 -34 c0 -3 -4 -8 -10 -11 -5 -3 -10
-1 -10 4 0 6 5 11 10 11 6 0 10 -2 10 -4z"/>
<path d="M3617 3233 c-4 -3 -7 -11 -7 -17 0 -6 5 -5 12 2 6 6 9 14 7 17 -3 3
-9 2 -12 -2z"/>
<path d="M3710 3210 c-6 -11 -7 -20 -3 -20 5 0 14 9 21 20 7 11 8 20 2 20 -5
0 -14 -9 -20 -20z"/>
<path d="M3632 3194 c2 -8 7 -14 13 -14 5 1 13 -7 17 -17 7 -16 8 -16 5 2 -2
11 -9 19 -16 17 -9 -2 -11 3 -8 13 4 8 2 15 -4 15 -6 0 -9 -7 -7 -16z"/>
<path d="M3611 3167 c2 -1 13 -9 24 -17 19 -14 19 -14 6 3 -7 9 -18 17 -24 17
-6 0 -8 -1 -6 -3z"/>
<path d="M3871 3113 c0 -11 3 -13 6 -5 2 6 10 9 15 6 7 -4 8 -2 4 4 -11 18
-26 14 -25 -5z"/>
<path d="M3915 3109 c-4 -6 -5 -12 -2 -15 2 -3 7 2 10 11 7 17 1 20 -8 4z"/>
<path d="M3850 3085 c0 -8 29 -12 39 -5 9 5 4 8 -13 8 -14 0 -26 -2 -26 -3z"/>
<path d="M3849 3064 c6 -3 8 -11 5 -19 -3 -7 -1 -15 4 -19 5 -3 8 5 7 16 -1
12 -7 23 -14 24 -6 1 -7 0 -2 -2z"/>
<path d="M3894 3062 c3 -5 1 -12 -6 -14 -8 -3 -9 -6 -1 -11 6 -4 13 0 17 8 3
8 0 17 -6 21 -6 4 -8 3 -4 -4z"/>
<path d="M2466 3003 c-6 -14 -5 -15 5 -6 7 7 10 15 7 18 -3 3 -9 -2 -12 -12z"/>
<path d="M2533 2965 c0 -7 6 -11 14 -8 7 3 13 6 13 8 0 2 -6 5 -13 8 -8 3 -14
-1 -14 -8z"/>
<path d="M2474 2946 c1 -8 5 -18 8 -22 4 -3 5 1 4 10 -1 8 -5 18 -8 22 -4 3
-5 -1 -4 -10z"/>
<path d="M2371 2895 c0 -5 4 -17 9 -25 7 -11 10 -11 10 -2 0 7 5 10 12 6 7 -4
8 -3 4 5 -4 6 -11 9 -16 6 -4 -3 -11 1 -13 7 -3 7 -6 9 -6 3z"/>
<path d="M4093 2871 c0 -11 5 -18 9 -15 4 3 5 11 1 19 -7 21 -12 19 -10 -4z"/>
<path d="M2355 2860 c-3 -5 -1 -10 4 -10 6 0 11 5 11 10 0 6 -2 10 -4 10 -3 0
-8 -4 -11 -10z"/>
<path d="M2414 2855 c-4 -8 -10 -12 -15 -9 -5 3 -12 -1 -15 -9 -3 -9 -14 -13
-27 -11 -21 4 -21 4 -2 -5 14 -6 23 -5 31 5 6 7 14 11 17 7 4 -3 9 2 13 11 3
9 11 13 17 9 6 -3 7 -1 3 5 -10 16 -15 15 -22 -3z"/>
<path d="M4156 2847 c3 -10 9 -15 12 -12 3 3 0 11 -7 18 -10 9 -11 8 -5 -6z"/>
<path d="M2414 2819 c-3 -6 -1 -16 5 -22 9 -9 10 -7 5 7 -6 15 -4 17 6 11 9
-5 11 -4 6 3 -9 15 -13 15 -22 1z"/>
<path d="M2280 2761 c0 -6 -11 -16 -25 -23 -13 -6 -22 -15 -18 -21 3 -5 9 -3
14 4 7 11 9 11 9 1 0 -10 3 -10 14 0 8 7 12 15 11 18 -2 3 5 6 15 6 12 0 17
-6 15 -18 -2 -10 0 -18 4 -18 5 0 8 14 7 30 -1 27 -16 45 -16 19 0 -8 -5 -8
-15 1 -11 9 -15 9 -15 1z"/>
<path d="M2280 2715 c-6 -8 -9 -20 -5 -27 4 -7 0 -5 -7 4 -10 11 -19 14 -29 7
-12 -7 -12 -9 1 -9 12 0 12 -2 2 -9 -11 -7 -10 -9 3 -14 9 -4 13 -3 10 2 -3 5
7 9 22 9 55 -1 58 0 40 20 -10 10 -14 22 -10 25 3 4 2 7 -4 7 -6 0 -16 -7 -23
-15z m30 -27 c0 -6 -6 -5 -15 2 -8 7 -15 14 -15 16 0 2 7 1 15 -2 8 -4 15 -11
15 -16z"/>
<path d="M4240 2721 c0 -16 19 -23 36 -13 11 6 13 11 5 16 -6 4 -11 2 -11 -3
0 -6 -5 -11 -11 -11 -5 0 -7 5 -4 10 3 6 1 10 -4 10 -6 0 -11 -4 -11 -9z"/>
<path d="M2235 2619 c-3 -4 2 -6 10 -5 21 3 28 13 10 13 -9 0 -18 -4 -20 -8z"/>
<path d="M2296 2622 c-3 -5 1 -9 9 -9 8 0 12 4 9 9 -3 4 -7 8 -9 8 -2 0 -6 -4
-9 -8z"/>
<path d="M4310 2520 c-12 -8 -10 -10 8 -10 13 0 20 4 17 10 -7 12 -6 12 -25 0z"/>
<path d="M2144 2429 c-2 -5 -12 -6 -22 -3 -14 5 -14 4 -2 -4 8 -6 17 -9 20 -7
4 2 7 -3 7 -11 0 -10 -4 -11 -11 -4 -5 5 -14 10 -18 10 -11 0 -6 -23 7 -32 6
-5 6 -8 -1 -8 -7 0 -15 -7 -18 -16 -4 -10 -2 -13 7 -8 14 9 34 35 37 49 1 6 8
17 16 26 12 14 12 16 -1 16 -9 0 -18 -4 -21 -8z"/>
<path d="M2175 2300 c-3 -5 -3 -10 2 -10 4 0 1 -5 -7 -10 -11 -7 -11 -10 -2
-10 7 0 10 -5 6 -12 -4 -6 -3 -8 4 -4 6 3 9 16 7 27 -3 15 0 19 11 15 9 -3 12
-1 9 4 -8 13 -22 13 -30 0z"/>
<path d="M2147 2246 c-3 -8 0 -17 7 -19 10 -4 12 1 9 14 -6 23 -9 24 -16 5z"/>
<path d="M2160 2200 c-9 -6 -10 -10 -3 -10 6 0 15 5 18 10 8 12 4 12 -15 0z"/>
<path d="M2190 2200 c0 -5 5 -10 11 -10 5 0 7 5 4 10 -3 6 -8 10 -11 10 -2 0
-4 -4 -4 -10z"/>
<path d="M2170 2166 c0 -2 7 -7 16 -10 8 -3 12 -2 9 4 -6 10 -25 14 -25 6z"/>
<path d="M2114 2119 c-1 -16 2 -29 6 -29 7 0 7 46 0 54 -3 2 -6 -9 -6 -25z"/>
<path d="M2177 2093 c-10 -9 -9 -23 1 -23 5 0 9 7 9 15 0 17 -1 18 -10 8z"/>
<path d="M2140 2080 c0 -5 5 -10 10 -10 6 0 10 5 10 10 0 6 -4 10 -10 10 -5 0
-10 -4 -10 -10z"/>
<path d="M4200 2080 c0 -5 5 -10 11 -10 5 0 7 5 4 10 -3 6 -8 10 -11 10 -2 0
-4 -4 -4 -10z"/>
<path d="M4240 2075 c-7 -9 -11 -17 -9 -20 3 -2 10 5 17 15 14 24 10 26 -8 5z"/>
<path d="M2116 2028 c1 -16 5 -32 9 -36 4 -4 6 0 5 8 -7 49 2 55 57 38 6 -1
10 1 10 7 -1 5 -20 10 -42 10 -39 2 -41 0 -39 -27z"/>
<path d="M4251 2043 c-1 -27 10 -35 29 -21 12 8 12 9 -2 4 -12 -3 -18 2 -21
17 l-4 22 -2 -22z"/>
<path d="M4200 2035 c-11 -13 -10 -14 4 -9 9 3 16 10 16 15 0 13 -6 11 -20 -6z"/>
<path d="M2140 2018 c0 -3 9 -6 20 -5 11 1 20 5 20 9 0 3 -9 6 -20 5 -11 -1
-20 -5 -20 -9z"/>
<path d="M4230 2021 c0 -6 4 -13 10 -16 6 -3 7 1 4 9 -7 18 -14 21 -14 7z"/>
<path d="M4205 2000 c3 -5 8 -10 11 -10 2 0 4 5 4 10 0 6 -5 10 -11 10 -5 0
-7 -4 -4 -10z"/>
<path d="M2242 1822 c-9 -6 -7 -13 10 -28 17 -14 19 -15 9 -2 -7 9 -10 22 -6
28 7 12 4 12 -13 2z"/>
<path d="M2273 1813 c0 -9 4 -10 14 -2 7 6 13 12 13 14 0 1 -6 2 -13 2 -8 0
-14 -6 -14 -14z"/>
<path d="M2299 1793 c-13 -17 -13 -17 6 -3 11 8 22 16 24 17 2 2 0 3 -6 3 -6
0 -17 -8 -24 -17z"/>
<path d="M2296 1758 c3 -5 10 -6 15 -3 13 9 11 12 -6 12 -8 0 -12 -4 -9 -9z"/>
<path d="M4029 1703 c-13 -16 -12 -17 4 -4 9 7 17 15 17 17 0 8 -8 3 -21 -13z"/>
<path d="M2345 1700 c-3 -6 1 -7 9 -4 18 7 21 14 7 14 -6 0 -13 -4 -16 -10z"/>
<path d="M4030 1676 c0 -2 8 -10 18 -17 15 -13 16 -12 3 4 -13 16 -21 21 -21
13z"/>
<path d="M3889 1608 c-5 -10 -7 -18 -3 -18 3 0 0 -8 -7 -17 -13 -16 -12 -17 4
-4 11 9 17 10 17 2 0 -6 -12 -16 -26 -22 -15 -5 -24 -12 -21 -16 8 -7 57 24
57 37 0 5 -4 11 -10 15 -5 3 -7 12 -4 20 4 8 10 13 14 10 5 -3 11 -2 14 3 3 5
-2 9 -10 9 -8 0 -19 -9 -25 -19z"/>
<path d="M3920 1600 c-12 -7 -10 -9 7 -7 12 0 19 5 17 9 -6 10 -6 10 -24 -2z"/>
<path d="M2516 1582 c-2 -4 -1 -14 4 -22 7 -11 9 -9 7 8 -1 24 -3 26 -11 14z"/>
<path d="M3845 1580 c-3 -5 -2 -10 4 -10 5 0 13 5 16 10 3 6 2 10 -4 10 -5 0
-13 -4 -16 -10z"/>
<path d="M3931 1562 c-1 -13 -5 -20 -11 -17 -5 3 -10 1 -10 -4 0 -16 20 -13
26 4 3 8 4 20 1 27 -3 7 -6 3 -6 -10z"/>
<path d="M2710 1481 c0 -6 4 -13 10 -16 6 -3 7 1 4 9 -7 18 -14 21 -14 7z"/>
<path d="M2928 1367 c-13 -10 -17 -16 -10 -12 8 4 12 2 11 -6 -2 -8 0 -24 5
-36 7 -21 17 -23 89 -14 5 1 1 8 -7 17 -21 21 -20 35 2 28 13 -5 14 -4 3 4 -7
5 -10 15 -6 21 5 9 11 7 22 -6 14 -17 14 -17 5 1 -9 18 -42 32 -41 18 3 -20
-2 -32 -11 -27 -5 3 -7 12 -4 20 8 20 -30 15 -58 -8z m49 4 c0 -3 6 -20 16
-37 l16 -32 -30 2 c-18 1 -35 9 -41 20 -8 14 -7 17 1 12 6 -4 11 -5 11 -2 0 2
3 13 6 23 5 15 4 15 -5 3 -6 -8 -11 -10 -11 -4 0 6 2 13 5 16 7 7 34 6 32 -1z"/>
<path d="M2961 1328 c-13 -20 -12 -22 1 -11 8 7 18 10 22 6 4 -4 4 0 0 10 -8
21 -6 21 -23 -5z"/>
<path d="M3135 1379 c-4 -6 -5 -12 -2 -15 2 -3 7 2 10 11 7 17 1 20 -8 4z"/>
<path d="M3295 1380 c3 -5 8 -10 11 -10 2 0 4 5 4 10 0 6 -5 10 -11 10 -5 0
-7 -4 -4 -10z"/>
<path d="M3336 1375 c-3 -9 -6 -22 -5 -28 0 -7 5 -1 10 12 5 13 8 26 5 28 -2
2 -6 -3 -10 -12z"/>
<path d="M3359 1366 c-9 -20 -9 -20 4 -3 9 11 18 14 21 8 4 -5 2 -12 -4 -16
-6 -3 -8 -17 -6 -30 3 -16 -1 -25 -12 -28 -9 -2 -1 -4 18 -4 19 0 29 2 22 4
-6 3 -10 9 -7 13 3 5 12 7 20 4 8 -4 12 -11 9 -16 -4 -6 2 -5 14 1 27 14 35
14 26 -1 -5 -9 -2 -9 9 1 18 14 23 26 8 17 -14 -9 -23 25 -10 40 9 11 9 14 0
14 -7 0 -10 4 -7 8 2 4 -7 9 -22 10 -20 2 -23 -1 -14 -10 7 -7 12 -17 12 -22
-1 -6 -9 -2 -18 10 -10 11 -26 21 -35 21 -10 0 -23 -10 -28 -21z m68 -29 c-1
-4 -7 -9 -12 -9 -6 0 -15 -4 -20 -8 -7 -6 -11 -2 -12 10 -1 11 3 22 8 25 5 4
6 12 2 18 -3 7 3 3 16 -7 12 -11 20 -24 18 -29z m29 6 c-2 -15 -9 -29 -16 -31
-9 -3 -11 1 -5 14 4 11 8 27 9 36 0 9 4 15 7 12 4 -2 6 -16 5 -31z"/>
<path d="M3390 1342 c0 -5 7 -9 15 -9 8 0 12 4 9 9 -3 4 -9 8 -15 8 -5 0 -9
-4 -9 -8z"/>
<path d="M3070 1374 c0 -1 6 -7 14 -13 10 -9 15 -8 19 2 3 8 -3 13 -14 13 -11
0 -19 -1 -19 -2z"/>
<path d="M3258 1362 c-5 -18 -3 -20 12 -12 9 5 21 6 25 2 5 -4 5 -1 1 6 -4 7
-11 10 -16 7 -4 -3 -10 0 -12 7 -3 7 -7 3 -10 -10z"/>
<path d="M3176 1353 c-6 -14 -5 -15 5 -6 7 7 10 15 7 18 -3 3 -9 -2 -12 -12z"/>
<path d="M3117 1337 c4 -6 0 -8 -9 -5 -8 4 -15 0 -15 -7 0 -10 5 -11 18 -4 24
12 31 26 14 26 -8 0 -11 -5 -8 -10z"/>
<path d="M3310 1341 c0 -10 29 -36 34 -30 1 2 -6 12 -16 22 -10 9 -18 13 -18
8z"/>
<path d="M3061 1324 c0 -11 3 -14 6 -6 3 7 2 16 -1 19 -3 4 -6 -2 -5 -13z"/>
<path d="M3217 1333 c-10 -9 -9 -23 1 -23 5 0 9 7 9 15 0 17 -1 18 -10 8z"/>
<path d="M3028 1323 c7 -3 16 -2 19 1 4 3 -2 6 -13 5 -11 0 -14 -3 -6 -6z"/>
<path d="M3136 1313 c-6 -14 -5 -15 5 -6 7 7 10 15 7 18 -3 3 -9 -2 -12 -12z"/>
<path d="M3280 1312 c9 -19 30 -23 30 -5 0 4 -3 3 -7 0 -3 -4 -12 1 -20 11
-13 15 -13 15 -3 -6z"/>
<path d="M1099 2540 c-7 -5 -14 -23 -15 -41 -2 -22 0 -28 6 -19 4 7 7 22 5 32
-3 15 0 18 15 13 12 -4 20 -2 20 5 0 6 6 8 13 4 6 -4 8 -3 4 1 -11 12 -32 14
-48 5z"/>
<path d="M4390 2480 c0 -5 5 -10 11 -10 5 0 7 5 4 10 -3 6 -8 10 -11 10 -2 0
-4 -4 -4 -10z"/>
<path d="M519 2413 c-1 -2 -2 -8 -3 -13 0 -6 -6 -14 -13 -18 -7 -4 -9 -12 -5
-17 11 -15 32 -17 32 -2 0 8 3 7 10 -3 7 -12 9 -10 7 8 -1 23 -7 27 -23 15 -5
-5 1 1 13 12 22 20 22 21 3 21 -11 0 -21 -2 -21 -3z"/>
<path d="M5067 2383 c-4 -3 -2 -12 4 -20 14 -16 -2 -18 -18 -2 -8 8 -13 8 -17
0 -4 -6 -4 -11 0 -11 3 0 1 -6 -5 -14 -12 -14 -5 -46 9 -46 4 0 10 7 13 14 4
10 1 13 -9 9 -7 -3 -14 -1 -14 4 0 5 6 10 13 10 6 0 18 2 26 4 7 2 16 -3 18
-11 4 -12 3 -12 -5 -2 -7 11 -10 10 -16 -3 -8 -23 -8 -27 3 -20 5 3 13 0 17
-6 5 -8 3 -9 -6 -4 -10 6 -12 4 -7 -9 4 -10 3 -15 -3 -11 -14 9 -12 -8 3 -24
6 -8 7 -11 1 -8 -7 4 -10 -5 -9 -23 2 -36 -1 -37 -16 -9 -8 15 -8 19 0 15 15
-10 14 7 -1 23 -7 8 -8 11 -3 8 6 -3 11 7 11 21 1 15 -1 21 -3 14 -3 -6 -9
-10 -14 -7 -5 4 -6 0 -3 -8 3 -8 1 -18 -5 -22 -8 -4 -8 -12 -1 -26 6 -10 8
-19 4 -19 -4 0 1 -9 10 -19 21 -24 3 -39 -22 -19 -15 12 -16 11 -3 -5 8 -10
21 -15 29 -12 22 8 45 -14 31 -31 -9 -11 -8 -14 0 -14 7 0 9 -5 5 -11 -5 -8
-10 -6 -16 5 -7 13 -13 14 -29 6 -11 -6 -17 -15 -13 -21 4 -6 10 -6 19 1 15
12 16 -5 2 -26 -4 -7 0 -18 9 -25 34 -28 40 -19 39 60 -1 53 -5 75 -13 74 -15
-4 -16 13 -1 22 6 4 8 14 5 22 -3 8 -3 20 1 26 13 21 10 117 -4 128 -7 6 -10
15 -7 20 6 10 0 12 -9 2z m-12 -32 c3 -5 2 -12 -3 -15 -5 -3 -9 1 -9 9 0 17 3
19 12 6z m29 -300 c-1 -14 -2 -28 -3 -30 -1 -2 -8 2 -16 9 -11 9 -12 16 -5 25
5 6 8 14 5 17 -3 2 1 5 8 5 9 0 13 -10 11 -26z"/>
<path d="M5065 2051 c-3 -5 -2 -12 3 -15 5 -3 9 1 9 9 0 17 -3 19 -12 6z"/>
<path d="M5044 2125 c-18 -14 -18 -15 3 -12 27 4 38 13 25 21 -5 3 -18 -1 -28
-9z"/>
<path d="M5015 1960 c3 -5 8 -10 11 -10 2 0 4 5 4 10 0 6 -5 10 -11 10 -5 0
-7 -4 -4 -10z"/>
<path d="M5070 1910 c0 -5 5 -10 11 -10 5 0 7 5 4 10 -3 6 -8 10 -11 10 -2 0
-4 -4 -4 -10z"/>
<path d="M550 1815 c-7 -8 -17 -12 -23 -8 -6 3 -7 1 -3 -5 10 -17 42 -10 43
10 2 22 -1 22 -17 3z"/>
<path d="M4119 1798 c-6 -12 -5 -46 2 -43 4 3 7 14 6 25 -1 18 -5 25 -8 18z"/>
<path d="M1198 1491 c11 -7 11 -9 -1 -14 -23 -8 -16 -52 8 -52 11 0 25 -4 32
-8 15 -10 27 11 28 49 1 31 -7 36 -32 21 -6 -4 -14 -3 -18 3 -3 5 -12 10 -18
10 -8 0 -8 -3 1 -9z m56 -38 c-3 -38 -2 -37 -16 -26 -7 6 -21 9 -30 8 -10 -2
-18 1 -18 7 0 6 8 7 18 4 14 -5 14 -4 -2 9 -11 8 -15 16 -8 16 26 3 31 4 38
11 12 13 21 -1 18 -29z"/>
<path d="M1235 1470 c-4 -6 -12 -7 -18 -3 -7 3 -3 -3 7 -15 11 -12 20 -22 21
-22 0 0 1 11 1 25 0 28 -2 30 -11 15z"/>
<path d="M2580 1475 c-13 -15 -5 -39 11 -30 5 4 15 3 22 -2 18 -11 38 -13 31
-2 -3 5 -11 7 -17 3 -7 -3 -3 2 8 11 19 15 18 16 -17 12 -22 -2 -35 0 -32 5 3
5 13 7 21 4 8 -3 11 -1 8 4 -9 14 -21 12 -35 -5z"/>
<path d="M1423 1317 c0 -8 6 -14 14 -14 9 0 10 4 2 14 -6 7 -12 13 -14 13 -1
0 -2 -6 -2 -13z"/>
<path d="M4794 1269 c-3 -6 -2 -15 3 -20 5 -5 9 -1 10 11 2 22 -2 25 -13 9z"/>
<path d="M4835 1220 c-3 -5 -1 -10 4 -10 6 0 11 5 11 10 0 6 -2 10 -4 10 -3 0
-8 -4 -11 -10z"/>
<path d="M1776 1140 c-1 -3 -1 -18 -1 -35 0 -27 3 -29 34 -30 24 0 35 5 37 17
1 11 -4 16 -17 15 -10 -1 -19 -5 -19 -9 0 -4 -4 -8 -9 -8 -16 0 -5 33 12 36
11 1 14 -2 10 -9 -4 -7 1 -6 10 2 9 7 17 17 17 21 0 8 -71 8 -74 0z"/>
<path d="M4209 688 c-6 -15 -3 -76 3 -72 5 3 14 2 21 -3 19 -15 40 -9 43 11 3
23 -34 56 -55 48 -9 -3 -12 -1 -7 6 4 7 5 12 2 12 -3 0 -6 -1 -7 -2z m58 -62
c0 -15 -13 -15 -41 0 -16 10 -17 12 -1 17 10 4 13 12 9 19 -4 7 2 5 13 -5 11
-9 20 -23 20 -31z"/>
<path d="M4236 641 c-4 -5 -2 -12 3 -15 5 -4 12 -2 15 3 4 5 2 12 -3 15 -5 4
-12 2 -15 -3z"/>
<path d="M2025 4744 c-22 -14 -32 -23 -21 -20 14 5 17 2 12 -9 -3 -9 1 -18 9
-21 8 -4 12 -10 9 -15 -3 -5 2 -6 11 -2 12 4 13 8 5 13 -8 5 -4 13 12 26 12
11 24 26 26 34 1 8 -9 0 -23 -17 -31 -38 -41 -41 -41 -13 0 14 5 19 15 15 9
-3 12 -3 8 1 -4 4 1 13 11 20 29 23 9 15 -33 -12z"/>
<path d="M2077 4713 c-10 -9 -9 -23 1 -23 5 0 9 7 9 15 0 17 -1 18 -10 8z"/>
<path d="M1426 4698 c3 -5 10 -6 15 -3 13 9 11 12 -6 12 -8 0 -12 -4 -9 -9z"/>
<path d="M1450 4687 c-20 -16 -22 -34 -5 -34 7 0 11 7 7 15 -3 9 -1 13 5 9 5
-3 10 0 10 8 0 8 -1 15 -1 15 -1 0 -8 -6 -16 -13z"/>
<path d="M1411 4674 c0 -11 3 -14 6 -6 3 7 2 16 -1 19 -3 4 -6 -2 -5 -13z"/>
<path d="M1999 4688 c-8 -27 -5 -36 9 -30 10 4 12 7 4 10 -7 2 -10 8 -6 13 3
5 3 9 0 9 -3 0 -6 -1 -7 -2z"/>
<path d="M2060 4670 c-8 -5 -12 -11 -10 -14 3 -2 14 2 24 10 22 15 10 19 -14
4z"/>
<path d="M2030 4655 c0 -5 5 -17 10 -25 5 -8 10 -10 10 -5 0 6 -5 17 -10 25
-5 8 -10 11 -10 5z"/>
<path d="M2071 4647 c-8 -10 -7 -14 2 -14 8 0 14 6 14 14 0 7 -1 13 -2 13 -2
0 -8 -6 -14 -13z"/>
<path d="M1465 4640 c-3 -6 1 -7 9 -4 18 7 21 14 7 14 -6 0 -13 -4 -16 -10z"/>
<path d="M2010 4639 c0 -9 8 -23 18 -31 14 -13 21 -13 42 -2 15 8 19 14 10 14
-9 0 -21 -5 -27 -11 -8 -8 -15 -4 -27 17 -9 17 -15 23 -16 13z"/>
<path d="M1481 4621 c-8 -5 -9 -11 -3 -15 5 -3 12 1 16 9 6 17 6 18 -13 6z"/>
<path d="M1414 4598 c-5 -7 -2 -8 6 -3 9 6 12 4 8 -7 -4 -8 -1 -15 6 -15 17 0
16 25 0 31 -8 3 -16 0 -20 -6z"/>
<path d="M1996 4602 c-2 -4 4 -13 15 -20 22 -14 25 -7 5 14 -8 8 -17 11 -20 6z"/>
<path d="M2056 4579 c-15 -12 -25 -23 -22 -26 2 -3 17 7 33 21 33 31 26 34
-11 5z"/>
<path d="M2000 4564 c1 -16 29 -60 29 -44 0 8 -6 24 -14 34 -8 11 -15 16 -15
10z"/>
<path d="M2070 4560 c-11 -7 -11 -10 -2 -10 7 0 10 -4 7 -10 -3 -5 -2 -10 4
-10 5 0 9 9 8 20 -1 11 -1 20 -2 20 0 0 -7 -5 -15 -10z"/>
<path d="M1403 4535 c-3 -9 -3 -18 -1 -21 3 -3 8 4 11 16 6 23 -1 27 -10 5z"/>
<path d="M2051 4524 c0 -11 3 -14 6 -6 3 7 2 16 -1 19 -3 4 -6 -2 -5 -13z"/>
<path d="M1471 4513 c7 -12 15 -20 18 -17 3 2 -3 12 -13 22 -17 16 -18 16 -5
-5z"/>
<path d="M1990 4510 c0 -5 5 -10 10 -10 6 0 10 5 10 10 0 6 -4 10 -10 10 -5 0
-10 -4 -10 -10z"/>
<path d="M2070 4510 c0 -5 5 -10 11 -10 5 0 7 5 4 10 -3 6 -8 10 -11 10 -2 0
-4 -4 -4 -10z"/>
<path d="M1441 4488 c6 -10 15 -15 21 -12 8 5 9 1 4 -12 -5 -14 -4 -16 5 -7
13 13 2 36 -13 27 -7 -5 -9 -2 -6 8 4 8 0 15 -7 15 -10 0 -11 -5 -4 -19z"/>
<path d="M2009 4483 c-13 -15 -12 -15 8 -2 20 12 24 11 36 -5 14 -19 38 -15
36 7 0 9 -2 9 -6 0 -2 -7 -9 -13 -14 -13 -6 0 -8 4 -5 9 3 5 -1 12 -10 15 -24
9 -30 8 -45 -11z"/>
<path d="M2015 4460 c-3 -6 -11 -8 -16 -5 -5 4 -9 1 -9 -4 0 -14 6 -14 29 -1
16 8 19 5 19 -16 0 -19 -3 -22 -14 -13 -21 17 -17 2 5 -20 18 -18 19 -18 17
22 -1 39 -17 59 -31 37z"/>
<path d="M1413 4437 c-4 -6 -1 -7 7 -2 10 6 12 4 7 -7 -4 -12 -1 -14 16 -10
12 3 16 7 9 10 -7 2 -10 7 -8 11 3 4 -2 8 -10 8 -8 0 -18 -5 -21 -10z"/>
<path d="M2060 4443 c0 -5 5 -14 12 -21 9 -9 9 -12 0 -12 -7 0 -12 -5 -12 -12
0 -8 6 -6 16 4 16 15 16 18 0 33 -9 9 -16 13 -16 8z"/>
<path d="M1470 4380 c0 -5 5 -10 10 -10 6 0 10 5 10 10 0 6 -4 10 -10 10 -5 0
-10 -4 -10 -10z"/>
<path d="M2071 4381 c-11 -7 -11 -9 0 -13 8 -3 11 -9 7 -13 -4 -4 -14 -3 -22
4 -11 9 -18 6 -35 -15 -24 -31 -23 -27 -25 -76 -1 -21 1 -35 4 -32 3 3 6 18 6
32 3 51 4 53 17 46 6 -4 9 -4 5 1 -4 4 -3 16 3 27 8 15 13 17 24 8 18 -15 34
-5 32 20 -1 11 -1 20 -2 20 0 0 -6 -4 -14 -9z"/>
<path d="M1995 4360 c-3 -5 -1 -10 4 -10 6 0 11 5 11 10 0 6 -2 10 -4 10 -3 0
-8 -4 -11 -10z"/>
<path d="M1415 4350 c-3 -6 1 -7 9 -4 18 7 21 14 7 14 -6 0 -13 -4 -16 -10z"/>
<path d="M2041 4328 c-1 -20 14 -24 25 -6 4 6 3 8 -4 4 -5 -3 -13 0 -15 6 -3
8 -6 6 -6 -4z"/>
<path d="M2072 4305 c-11 -24 -7 -55 7 -55 4 0 8 7 8 15 0 8 -4 12 -9 9 -4 -3
-8 0 -8 5 0 6 4 11 8 11 4 0 8 9 9 20 2 26 -1 25 -15 -5z"/>
<path d="M1485 4302 c-10 -7 -18 -32 -10 -32 2 0 9 9 15 20 12 22 11 24 -5 12z"/>
<path d="M2028 4293 c7 -3 16 -2 19 1 4 3 -2 6 -13 5 -11 0 -14 -3 -6 -6z"/>
<path d="M2861 4281 c-1 -23 -2 -23 -19 -8 -10 10 -23 17 -28 17 -4 0 1 -7 13
-15 13 -9 20 -22 17 -30 -4 -8 -1 -15 5 -15 6 0 10 3 9 8 0 4 2 15 6 24 4 10
6 23 3 30 -3 7 -6 2 -6 -11z"/>
<path d="M1414 4278 c-5 -7 -3 -8 6 -3 10 6 12 4 7 -8 -4 -11 -2 -14 9 -10 11
4 12 9 3 19 -14 17 -16 17 -25 2z"/>
<path d="M2795 4273 c24 -21 26 -45 5 -55 -11 -6 -10 -7 4 -5 30 3 28 44 -3
63 -25 15 -26 15 -6 -3z"/>
<path d="M2886 4277 c3 -10 9 -15 12 -12 3 3 0 11 -7 18 -10 9 -11 8 -5 -6z"/>
<path d="M3580 4280 c-12 -7 -10 -9 7 -7 12 0 19 5 17 9 -6 10 -6 10 -24 -2z"/>
<path d="M3105 4257 c0 -38 12 -43 41 -16 22 21 24 21 18 4 -7 -17 -5 -18 7
-8 12 9 18 10 27 1 8 -8 7 -14 -5 -23 -14 -10 -12 -12 12 -11 18 1 32 10 41
28 12 23 12 26 -3 24 -9 -2 -19 -8 -21 -15 -3 -9 -7 -9 -18 0 -12 9 -12 15 -2
28 11 14 11 14 -2 5 -8 -7 -27 -11 -42 -9 -16 2 -28 -2 -28 -8 0 -6 -6 -3 -13
7 -12 16 -13 16 -12 -7z m29 -19 c-3 -4 -9 -8 -15 -8 -5 0 -9 4 -9 8 0 5 7 9
15 9 8 0 12 -4 9 -9z m97 -15 c-12 -20 -14 -14 -5 12 4 9 9 14 11 11 3 -2 0
-13 -6 -23z"/>
<path d="M3535 4271 c-3 -5 0 -13 6 -17 7 -4 9 -3 5 4 -3 5 0 13 6 15 9 4 10
6 1 6 -6 1 -14 -3 -18 -8z"/>
<path d="M2028 4263 c7 -3 16 -2 19 1 4 3 -2 6 -13 5 -11 0 -14 -3 -6 -6z"/>
<path d="M3034 4248 c1 -13 -1 -28 -5 -33 -5 -7 4 -11 24 -11 30 0 33 3 32 30
0 24 -5 30 -26 33 -22 3 -26 0 -25 -19z m41 -7 c-2 -9 -4 -19 -4 -22 -2 -12
-28 -5 -28 7 0 7 7 10 16 6 13 -5 14 -3 4 9 -10 13 -10 16 1 16 8 0 12 -7 11
-16z"/>
<path d="M3262 4245 c-15 -32 -15 -31 1 -33 6 0 22 -3 35 -6 13 -3 20 -1 17 5
-12 19 7 30 21 12 7 -10 14 -14 14 -9 0 5 7 2 17 -5 15 -13 15 -12 6 6 -6 11
-9 28 -8 38 2 9 -1 17 -7 17 -6 0 -7 -7 -4 -16 5 -12 3 -14 -6 -8 -20 14 -51
11 -55 -6 -4 -13 -3 -13 7 0 9 12 11 12 8 1 -2 -8 -12 -15 -21 -17 -13 -2 -15
2 -7 16 12 23 13 30 2 30 -5 0 -14 -11 -20 -25z"/>
<path d="M1450 4250 c-9 -6 -10 -10 -3 -10 6 0 15 5 18 10 8 12 4 12 -15 0z"/>
<path d="M3504 4248 c3 -15 26 -23 26 -8 0 6 -4 9 -9 6 -5 -4 -12 -1 -14 4 -3
6 -4 5 -3 -2z"/>
<path d="M3561 4243 c0 -13 -6 -22 -12 -20 -6 1 -14 -5 -16 -13 -3 -10 -2 -11
4 -4 4 6 16 10 25 8 10 -1 21 3 25 8 3 6 1 8 -5 4 -6 -3 -12 3 -15 16 l-4 23
-2 -22z"/>
<path d="M3590 4250 c0 -5 5 -10 11 -10 5 0 7 5 4 10 -3 6 -8 10 -11 10 -2 0
-4 -4 -4 -10z"/>
<path d="M2040 4240 c0 -5 5 -10 10 -10 6 0 10 5 10 10 0 6 -4 10 -10 10 -5 0
-10 -4 -10 -10z"/>
<path d="M1428 4212 c4 -11 1 -13 -8 -7 -8 5 -11 4 -7 -3 8 -12 32 -10 44 3 5
4 2 5 -6 0 -10 -6 -13 -4 -9 7 4 8 1 15 -7 15 -8 0 -11 -7 -7 -15z"/>
<path d="M2020 4215 c15 -18 -1 -20 -18 -3 -8 8 -12 8 -12 1 0 -23 71 -28 76
-5 1 7 0 8 -3 2 -2 -5 -9 -10 -14 -10 -6 0 -7 5 -3 12 4 7 3 8 -4 4 -7 -4 -12
-2 -12 3 0 6 -5 11 -11 11 -8 0 -8 -5 1 -15z"/>
<path d="M2070 4181 c-14 -27 -13 -34 3 -19 8 7 14 18 14 25 0 18 -5 16 -17
-6z"/>
<path d="M1465 4160 c0 -15 3 -26 8 -23 4 2 7 13 7 23 0 10 -3 21 -7 23 -5 3
-8 -8 -8 -23z"/>
<path d="M3870 4180 c0 -5 5 -10 10 -10 6 0 10 5 10 10 0 6 -4 10 -10 10 -5 0
-10 -4 -10 -10z"/>
<path d="M3930 4180 c0 -5 5 -10 11 -10 5 0 7 5 4 10 -3 6 -8 10 -11 10 -2 0
-4 -4 -4 -10z"/>
<path d="M2446 4156 c5 -26 6 -26 28 -10 14 10 16 14 5 14 -12 0 -12 2 0 9 10
7 7 9 -11 8 -20 -2 -25 -7 -22 -21z"/>
<path d="M3912 4150 c7 -10 14 -18 15 -16 6 6 -9 36 -18 36 -5 0 -4 -9 3 -20z"/>
<path d="M2035 4150 c-3 -5 -1 -10 4 -10 6 0 11 5 11 10 0 6 -2 10 -4 10 -3 0
-8 -4 -11 -10z"/>
<path d="M2067 4136 c-9 -7 -28 -12 -42 -11 -14 2 -28 -2 -32 -8 -3 -7 -3 -9
2 -5 11 10 44 -34 38 -52 -4 -13 -3 -13 5 -1 7 10 6 21 -4 36 -14 21 -13 23
11 23 20 0 23 -3 14 -14 -8 -10 -8 -14 0 -14 6 0 11 5 11 11 0 5 6 7 13 3 9
-6 9 -4 -1 8 -10 13 -10 17 0 21 7 2 11 7 8 10 -3 3 -13 0 -23 -7z"/>
<path d="M1413 4117 c-4 -6 -1 -7 7 -2 10 6 12 4 7 -7 -4 -12 -1 -14 16 -10
12 3 16 7 9 10 -7 2 -10 7 -8 11 3 4 -2 8 -10 8 -8 0 -18 -5 -21 -10z"/>
<path d="M3850 4120 c0 -5 5 -10 10 -10 6 0 10 5 10 10 0 6 -4 10 -10 10 -5 0
-10 -4 -10 -10z"/>
<path d="M3934 4119 c-3 -6 -1 -16 5 -22 9 -9 10 -7 5 7 -6 15 -4 17 6 11 9
-5 11 -4 6 3 -9 15 -13 15 -22 1z"/>
<path d="M2000 4080 c0 -5 5 -10 11 -10 5 0 7 5 4 10 -3 6 -8 10 -11 10 -2 0
-4 -4 -4 -10z"/>
<path d="M2070 4080 c-13 -8 -12 -10 3 -10 9 0 17 5 17 10 0 12 -1 12 -20 0z"/>
<path d="M1470 4060 c0 -5 5 -10 10 -10 6 0 10 5 10 10 0 6 -4 10 -10 10 -5 0
-10 -4 -10 -10z"/>
<path d="M2230 4061 c0 -5 6 -11 13 -14 6 -2 9 -8 5 -12 -4 -4 -15 -2 -24 6
-16 13 -16 12 -3 -8 8 -13 17 -23 20 -23 11 0 19 29 13 45 -7 16 -24 21 -24 6z"/>
<path d="M2270 4059 c0 -5 5 -7 10 -4 6 3 10 8 10 11 0 2 -4 4 -10 4 -5 0 -10
-5 -10 -11z"/>
<path d="M4115 4060 c-3 -5 -1 -10 4 -10 6 0 11 5 11 10 0 6 -2 10 -4 10 -3 0
-8 -4 -11 -10z"/>
<path d="M4179 4068 c-5 -19 -8 -50 -4 -46 7 7 15 48 9 48 -2 0 -4 -1 -5 -2z"/>
<path d="M2050 4045 c0 -8 4 -15 10 -15 5 0 7 7 4 15 -4 8 -8 15 -10 15 -2 0
-4 -7 -4 -15z"/>
<path d="M2070 4056 c0 -2 8 -10 18 -17 15 -13 16 -12 3 4 -13 16 -21 21 -21
13z"/>
<path d="M1415 4030 c-3 -6 1 -7 9 -4 18 7 21 14 7 14 -6 0 -13 -4 -16 -10z"/>
<path d="M4116 4027 c3 -10 9 -15 12 -12 3 3 0 11 -7 18 -10 9 -11 8 -5 -6z"/>
<path d="M2280 4020 c20 -13 33 -13 25 0 -3 6 -14 10 -23 10 -15 0 -15 -2 -2
-10z"/>
<path d="M2070 4016 c0 -2 8 -10 18 -17 15 -13 16 -12 3 4 -13 16 -21 21 -21
13z"/>
<path d="M4141 4004 c0 -11 3 -14 6 -6 3 7 2 16 -1 19 -3 4 -6 -2 -5 -13z"/>
<path d="M2284 3989 c15 -12 30 -19 33 -15 4 3 1 6 -6 6 -7 0 -9 5 -5 12 4 6
3 8 -4 4 -6 -3 -13 -2 -17 4 -3 5 -11 10 -17 10 -6 0 1 -10 16 -21z"/>
<path d="M4171 3994 c0 -11 3 -14 6 -6 3 7 2 16 -1 19 -3 4 -6 -2 -5 -13z"/>
<path d="M1485 3982 c-10 -7 -18 -32 -10 -32 2 0 9 9 15 20 12 22 11 24 -5 12z"/>
<path d="M2255 3980 c-3 -5 -1 -10 4 -10 6 0 11 5 11 10 0 6 -2 10 -4 10 -3 0
-8 -4 -11 -10z"/>
<path d="M1414 3958 c-5 -7 -3 -8 6 -3 10 6 12 4 7 -8 -4 -11 -2 -14 9 -10 11
4 12 9 3 19 -14 17 -16 17 -25 2z"/>
<path d="M817 3946 c-4 -11 -1 -16 11 -16 14 0 15 -2 2 -10 -8 -5 -15 -22 -15
-39 -1 -24 2 -28 13 -19 7 6 10 18 7 26 -3 8 2 23 10 32 11 12 13 20 6 25 -6
3 -11 3 -11 -2 0 -4 -4 -2 -9 5 -7 11 -9 11 -14 -2z"/>
<path d="M1450 3930 c-9 -6 -10 -10 -3 -10 6 0 15 5 18 10 8 12 4 12 -15 0z"/>
<path d="M4220 3919 c0 -4 8 -13 18 -18 9 -6 11 -11 5 -11 -15 0 -18 -20 -4
-20 12 0 22 27 15 43 -5 14 -34 19 -34 6z"/>
<path d="M4266 3922 c-7 -12 24 -53 35 -46 5 3 -1 14 -13 25 -13 12 -18 18
-13 15 6 -2 17 -1 25 5 12 7 10 9 -7 9 -12 0 -24 -4 -27 -8z"/>
<path d="M919 3918 c-8 -15 -3 -48 6 -52 11 -4 13 12 5 34 -1 3 -2 8 -1 13 1
6 -7 10 -10 5z"/>
<path d="M1428 3892 c4 -11 1 -13 -8 -7 -8 5 -11 4 -7 -3 8 -12 32 -10 44 3 5
4 2 5 -6 0 -10 -6 -13 -4 -9 7 4 8 1 15 -7 15 -8 0 -11 -7 -7 -15z"/>
<path d="M966 3862 c-3 -5 1 -9 9 -9 8 0 12 4 9 9 -3 4 -7 8 -9 8 -2 0 -6 -4
-9 -8z"/>
<path d="M1466 3857 c3 -10 9 -15 12 -12 3 3 0 11 -7 18 -10 9 -11 8 -5 -6z"/>
<path d="M1440 3840 c-9 -6 -10 -10 -3 -10 6 0 15 5 18 10 8 12 4 12 -15 0z"/>
<path d="M1411 3811 c-8 -5 -9 -11 -3 -15 5 -3 12 1 16 9 6 17 6 18 -13 6z"/>
<path d="M1456 3794 c-3 -7 2 -10 15 -7 22 6 26 20 4 20 -8 0 -16 -6 -19 -13z"/>
<path d="M1430 3760 c0 -6 4 -9 9 -6 5 4 12 1 14 -4 3 -6 4 -5 3 2 -3 15 -26
23 -26 8z"/>
<path d="M1411 3731 c-8 -5 -9 -11 -3 -15 5 -3 12 1 16 9 6 17 6 18 -13 6z"/>
<path d="M485 3719 c-16 -3 -25 -7 -18 -8 7 -1 10 -8 6 -18 -4 -11 -3 -14 6
-9 6 4 20 2 29 -5 9 -7 14 -10 10 -5 -4 5 -3 17 2 27 13 22 3 27 -35 18z m30
-9 c-3 -5 -12 -10 -18 -10 -7 0 -6 4 3 10 19 12 23 12 15 0z"/>
<path d="M1065 3703 c3 -34 31 -61 47 -45 16 16 -4 57 -30 64 -16 5 -19 1 -17
-19z m25 -3 c0 -5 -5 -10 -11 -10 -5 0 -7 5 -4 10 3 6 8 10 11 10 2 0 4 -4 4
-10z m20 -20 c0 -5 -5 -10 -11 -10 -5 0 -7 5 -4 10 3 6 8 10 11 10 2 0 4 -4 4
-10z"/>
<path d="M1443 3718 c-13 -21 -11 -57 4 -62 10 -4 11 -1 5 12 -10 20 -10 32 1
50 5 6 6 12 3 12 -3 0 -8 -6 -13 -12z"/>
<path d="M1067 3636 c-4 -10 -1 -13 9 -9 7 3 14 9 14 14 0 14 -17 10 -23 -5z"/>
<path d="M1427 3639 c7 -7 15 -10 18 -7 3 3 -2 9 -12 12 -14 6 -15 5 -6 -5z"/>
<path d="M1403 3615 c-3 -9 -3 -18 -1 -21 3 -3 8 4 11 16 6 23 -1 27 -10 5z"/>
<path d="M1469 3609 c5 -15 8 -29 5 -32 -2 -2 3 -10 13 -18 15 -12 16 -12 8 1
-5 8 -11 24 -12 35 -2 11 -8 24 -14 30 -7 7 -7 2 0 -16z"/>
<path d="M4560 3599 c0 -4 8 -17 19 -30 15 -19 21 -21 34 -11 8 7 23 9 33 6
15 -6 17 -4 7 6 -6 7 -9 19 -6 26 4 10 0 12 -11 8 -9 -3 -14 -10 -11 -14 6
-10 -24 -22 -36 -14 -5 3 -9 11 -8 17 0 9 2 9 6 0 6 -17 23 -17 23 0 0 7 -11
13 -25 13 -14 0 -25 -3 -25 -7z"/>
<path d="M540 3586 c0 -2 8 -10 18 -17 15 -13 16 -12 3 4 -13 16 -21 21 -21
13z"/>
<path d="M490 3561 c0 -6 4 -12 8 -15 5 -3 9 1 9 9 0 8 -4 15 -9 15 -4 0 -8
-4 -8 -9z"/>
<path d="M1413 3557 c-4 -6 -1 -7 7 -2 9 6 12 4 8 -6 -4 -10 1 -15 12 -15 11
0 16 5 12 15 -4 10 -1 12 9 6 8 -4 11 -4 6 0 -11 12 -47 13 -54 2z"/>
<path d="M550 3540 c0 -5 5 -10 11 -10 5 0 7 5 4 10 -3 6 -8 10 -11 10 -2 0
-4 -4 -4 -10z"/>
<path d="M1467 3489 c6 -23 9 -24 16 -5 3 8 0 17 -7 19 -10 4 -12 -1 -9 -14z"/>
<path d="M4737 3473 c3 -7 6 -13 8 -13 2 0 5 6 8 13 3 8 -1 14 -8 14 -7 0 -11
-6 -8 -14z"/>
<path d="M1413 3446 c0 -9 7 -12 16 -8 13 5 14 3 4 -9 -10 -13 -10 -16 1 -16
18 0 14 27 -6 38 -10 5 -15 4 -15 -5z"/>
<path d="M1473 3447 c0 -8 6 -14 14 -14 9 0 10 4 2 14 -6 7 -12 13 -14 13 -1
0 -2 -6 -2 -13z"/>
<path d="M4675 3439 c-4 -6 -5 -12 -2 -15 2 -3 7 2 10 11 7 17 1 20 -8 4z"/>
<path d="M4720 3439 c0 -5 5 -7 10 -4 6 3 10 8 10 11 0 2 -4 4 -10 4 -5 0 -10
-5 -10 -11z"/>
<path d="M4697 3433 c-4 -3 -7 -11 -7 -17 0 -6 5 -5 12 2 6 6 9 14 7 17 -3 3
-9 2 -12 -2z"/>
<path d="M4660 3406 c0 -3 9 -10 20 -16 11 -6 20 -8 20 -6 0 3 -9 10 -20 16
-11 6 -20 8 -20 6z"/>
<path d="M1400 3380 c-9 -6 -10 -10 -3 -10 6 0 15 5 18 10 8 12 4 12 -15 0z"/>
<path d="M1412 3361 c-11 -7 -11 -9 0 -14 9 -3 15 1 15 9 0 8 -1 14 -1 14 -1
0 -7 -4 -14 -9z"/>
<path d="M1400 3325 c0 -2 6 -8 13 -14 10 -8 14 -7 14 2 0 8 -6 14 -14 14 -7
0 -13 -1 -13 -2z"/>
<path d="M1475 3250 c-4 -6 -10 -8 -14 -6 -4 3 -8 -1 -8 -9 0 -13 4 -12 19 2
18 16 22 23 14 23 -3 0 -8 -5 -11 -10z"/>
<path d="M4794 3248 c-4 -6 -3 -8 3 -5 6 4 14 0 17 -9 9 -24 7 -28 -8 -15 -10
9 -15 8 -19 -3 -4 -11 -1 -13 11 -9 13 5 15 4 6 -8 -14 -18 -16 -61 -3 -53 6
3 8 12 5 19 -5 15 20 55 36 55 6 0 5 -7 -4 -17 -19 -22 -21 -58 -2 -42 6 5 14
6 16 2 3 -4 3 -2 1 6 -2 8 2 11 12 8 8 -4 17 -1 21 5 4 7 3 8 -4 4 -8 -5 -12
0 -12 13 0 10 6 22 13 25 6 3 1 3 -13 0 l-25 -7 20 24 20 24 -21 -17 c-21 -19
-49 -25 -40 -9 3 5 -1 11 -9 15 -8 3 -17 0 -21 -6z m56 -63 c-7 -9 -15 -13
-18 -10 -3 2 1 11 8 20 7 9 15 13 18 10 3 -2 -1 -11 -8 -20z"/>
<path d="M1483 3218 c-10 -17 -12 -59 -2 -53 4 3 6 13 4 23 -1 9 2 23 8 30 5
6 7 12 4 12 -3 0 -9 -6 -14 -12z"/>
<path d="M760 3195 c-8 -9 -8 -15 -2 -15 12 0 26 19 19 26 -2 2 -10 -2 -17
-11z"/>
<path d="M1366 3193 c-8 -19 2 -40 19 -40 8 0 12 4 9 8 -2 4 0 10 5 14 14 8 3
32 -14 32 -8 0 -16 -6 -19 -14z m29 -13 c-3 -5 -11 -10 -16 -10 -6 0 -7 5 -4
10 3 6 11 10 16 10 6 0 7 -4 4 -10z"/>
<path d="M1439 3173 c-13 -16 -12 -17 4 -4 9 7 17 15 17 17 0 8 -8 3 -21 -13z"/>
<path d="M1416 3110 c-2 -3 -2 -18 -2 -35 1 -25 5 -30 26 -30 37 0 65 14 52
27 -7 7 -8 17 -3 27 8 13 3 16 -31 16 -22 1 -41 -2 -42 -5z m24 -14 c-17 -17
-11 -27 9 -14 11 7 17 16 14 22 -3 5 -1 6 5 2 6 -4 9 -13 5 -21 -3 -9 1 -15 8
-15 11 0 11 -2 -1 -10 -9 -5 -19 -5 -25 0 -7 6 -15 6 -21 0 -7 -7 -10 -1 -10
18 0 17 5 29 13 29 9 0 10 -4 3 -11z"/>
<path d="M4970 3005 c-10 -13 -11 -18 -1 -28 10 -9 11 -8 5 7 -5 12 -4 17 3
13 5 -3 10 0 10 8 0 19 -2 19 -17 0z"/>
<path d="M872 2997 c1 -7 -4 -23 -11 -36 l-14 -25 31 20 c17 10 31 22 31 27 2
19 0 23 -19 24 -11 1 -20 -4 -18 -10z m22 -6 c3 -5 -2 -15 -12 -22 -15 -12
-16 -12 -5 2 7 9 10 19 6 22 -3 4 -4 7 0 7 3 0 8 -4 11 -9z"/>
<path d="M4920 3000 c-8 -5 -10 -10 -5 -10 6 0 17 5 25 10 8 5 11 10 5 10 -5
0 -17 -5 -25 -10z"/>
<path d="M4956 2941 c-17 -6 -17 -8 -4 -14 10 -3 19 0 22 9 3 8 4 14 3 13 -1
0 -11 -4 -21 -8z"/>
<path d="M4904 2886 c0 -13 5 -22 11 -20 15 6 16 44 1 44 -6 0 -12 -11 -12
-24z"/>
<path d="M4955 2800 c3 -5 8 -10 11 -10 2 0 4 5 4 10 0 6 -5 10 -11 10 -5 0
-7 -4 -4 -10z"/>
<path d="M975 2763 c1 -10 8 -17 13 -16 6 2 9 -4 6 -12 -4 -8 -10 -13 -14 -10
-5 3 -12 0 -16 -6 -4 -7 -3 -9 4 -5 6 3 13 2 17 -3 7 -13 43 -10 40 4 -13 49
-18 55 -31 44 -12 -10 -13 -9 -8 5 3 9 2 16 -4 16 -6 0 -9 -8 -7 -17z m40 -32
c3 -5 2 -12 -3 -15 -5 -3 -9 1 -9 9 0 17 3 19 12 6z"/>
<path d="M5015 2580 c3 -5 8 -10 11 -10 2 0 4 5 4 10 0 6 -5 10 -11 10 -5 0
-7 -4 -4 -10z"/>
<path d="M5050 2565 c-7 -9 -10 -18 -6 -22 3 -3 6 -1 6 6 0 7 4 10 8 7 5 -3 9
1 9 9 0 19 -2 19 -17 0z"/>
<path d="M5104 2555 c-4 -8 -9 -13 -13 -11 -10 7 -45 -23 -37 -31 4 -4 11 -2
15 6 5 7 12 11 16 9 4 -1 14 7 23 20 8 12 11 22 8 22 -4 0 -9 -7 -12 -15z"/>
<path d="M239 2549 c-10 -7 -8 -8 10 -7 13 2 26 -3 29 -11 3 -8 0 -11 -7 -7
-6 4 -19 2 -28 -3 -10 -6 -13 -11 -7 -11 13 0 14 -33 1 -41 -5 -4 -5 -9 2 -13
6 -4 11 -2 11 4 0 6 5 8 11 4 8 -5 8 -1 0 14 -8 16 -7 21 5 26 12 4 15 2 11
-9 -8 -18 9 -29 47 -31 20 -1 24 1 15 7 -8 5 -23 6 -34 2 -17 -5 -18 -4 -7 10
11 13 11 20 -2 40 -9 13 -14 26 -11 28 8 9 -31 7 -46 -2z m55 -59 c-6 -6 -10
-3 -10 10 0 13 4 16 10 10 7 -7 7 -13 0 -20z"/>
<path d="M305 2550 c-9 -14 4 -32 17 -24 6 4 8 -2 4 -17 -3 -13 -3 -18 0 -11
3 6 10 10 15 7 5 -4 6 2 2 11 -4 12 -3 15 5 10 8 -5 10 -2 5 9 -3 9 -9 13 -12
8 -9 -12 -31 -15 -31 -4 0 5 6 12 13 14 9 4 9 6 0 6 -6 1 -15 -3 -18 -9z"/>
<path d="M5030 2514 c0 -5 7 -18 15 -28 8 -11 15 -16 15 -10 0 5 -7 18 -15 28
-8 11 -15 16 -15 10z"/>
<path d="M5090 2501 c0 -5 7 -15 17 -22 15 -13 15 -12 4 9 -12 23 -21 28 -21
13z"/>
<path d="M5072 2480 c0 -14 2 -19 5 -12 2 6 2 18 0 25 -3 6 -5 1 -5 -13z"/>
<path d="M142 2429 c-14 -22 -7 -25 14 -5 8 8 11 17 6 20 -4 2 -13 -4 -20 -15z"/>
<path d="M188 2423 c7 -3 16 -2 19 1 4 3 -2 6 -13 5 -11 0 -14 -3 -6 -6z"/>
<path d="M180 2398 c0 -11 12 -10 30 2 12 7 10 9 -8 7 -12 0 -22 -5 -22 -9z"/>
<path d="M200 2380 c-13 -8 -12 -10 3 -10 9 0 17 5 17 10 0 12 -1 12 -20 0z"/>
<path d="M745 2311 c-3 -11 -13 -28 -21 -36 -9 -8 -11 -15 -5 -15 6 0 11 -5
11 -11 0 -5 -4 -7 -10 -4 -5 3 -10 2 -10 -3 0 -12 29 -24 41 -16 5 3 9 11 9
17 0 7 -4 6 -10 -3 -5 -8 -10 -11 -10 -6 0 5 7 18 16 28 14 15 15 20 3 35 -12
17 -12 17 6 1 16 -15 16 -19 4 -34 -12 -16 -12 -17 3 -11 10 3 20 1 24 -5 5
-7 2 -8 -6 -3 -9 5 -11 4 -6 -3 14 -22 31 -12 31 18 0 17 -3 30 -7 30 -5 0 -8
-5 -8 -12 0 -6 -2 -9 -5 -6 -9 8 6 38 16 32 5 -3 6 2 3 11 -6 14 -8 14 -20 -2
-13 -17 -14 -17 -8 2 5 16 4 17 -5 5 -9 -13 -12 -13 -20 -1 -7 11 -10 9 -16
-8z m-4 -44 c-10 -9 -11 -8 -5 6 3 10 9 15 12 12 3 -3 0 -11 -7 -18z"/>
<path d="M1199 2303 c-6 -7 -15 -11 -19 -8 -5 3 -11 1 -15 -4 -3 -5 3 -14 12
-20 12 -7 13 -11 5 -11 -8 0 -12 -6 -9 -12 2 -7 -3 -22 -12 -33 -12 -15 -13
-17 -1 -9 8 6 36 10 63 8 38 -1 45 1 37 11 -6 7 -9 19 -8 26 2 8 -3 13 -9 12
-7 -2 -13 1 -13 5 0 17 14 21 29 9 14 -11 14 -10 2 5 -7 10 -18 15 -24 11 -6
-4 -8 0 -5 9 8 18 -18 20 -33 1z m25 -25 c-3 -5 -10 -5 -16 -2 -6 4 -6 0 1
-13 6 -11 7 -24 3 -28 -4 -5 -1 -5 6 -1 7 4 10 11 8 15 -3 4 0 8 7 8 7 0 13
-8 13 -17 0 -12 -9 -16 -32 -16 -29 1 -34 8 -24 36 1 3 2 9 1 14 -1 4 4 15 10
23 10 11 14 11 20 1 4 -6 5 -16 3 -20z"/>
<path d="M890 2260 c0 -5 5 -10 11 -10 5 0 7 5 4 10 -3 6 -8 10 -11 10 -2 0
-4 -4 -4 -10z"/>
<path d="M15 2180 c-3 -6 -3 -10 2 -10 4 0 1 -5 -7 -11 -13 -9 -13 -10 0 -6 8
2 14 9 13 15 -2 6 6 10 17 9 11 -1 20 -7 20 -14 0 -7 10 -17 23 -23 19 -9 20
-9 6 2 -9 7 -18 19 -20 27 -6 17 -45 25 -54 11z"/>
<path d="M1135 2180 c-3 -5 -1 -10 4 -10 6 0 11 5 11 10 0 6 -2 10 -4 10 -3 0
-8 -4 -11 -10z"/>
<path d="M30 2140 c0 -5 5 -10 10 -10 6 0 10 5 10 10 0 6 -4 10 -10 10 -5 0
-10 -4 -10 -10z"/>
<path d="M57 2124 c-3 -4 -2 -15 3 -25 7 -12 7 -20 0 -24 -5 -3 -10 1 -10 9 0
9 -4 16 -8 16 -5 0 -9 -7 -9 -15 0 -14 11 -20 31 -16 5 1 4 -4 -2 -12 -7 -8
-8 -18 -4 -22 4 -5 1 -5 -6 -1 -7 4 -10 12 -7 17 4 5 2 9 -4 9 -21 0 -20 -19
3 -34 20 -13 26 -13 36 -2 8 11 8 16 0 21 -8 5 -4 12 9 22 20 13 20 15 5 38
-17 25 -26 30 -37 19z m30 -23 c12 -19 8 -31 -11 -31 -6 0 -4 5 4 10 8 5 10
10 4 10 -7 0 -14 7 -18 15 -8 21 7 19 21 -4z m-12 -60 c3 -5 2 -12 -3 -15 -5
-3 -9 1 -9 9 0 17 3 19 12 6z"/>
<path d="M1046 2122 c-3 -5 1 -9 9 -9 8 0 12 4 9 9 -3 4 -7 8 -9 8 -2 0 -6 -4
-9 -8z"/>
<path d="M1238 2089 c-7 -19 47 -75 57 -59 3 5 3 16 -1 23 -5 9 -4 9 6 0 7 -6
13 -23 13 -37 0 -27 11 -34 22 -16 5 8 11 7 21 -1 10 -8 14 -8 14 0 0 6 -5 11
-12 11 -9 0 -9 3 0 12 15 15 15 28 1 28 -5 0 -8 -4 -5 -9 7 -10 -19 -23 -28
-14 -3 4 -6 11 -6 17 0 6 5 4 10 -4 15 -24 11 2 -5 30 -8 14 -14 20 -15 14 -1
-29 -56 -25 -62 4 -3 15 -4 15 -10 1z"/>
<path d="M195 1960 c-3 -5 -1 -10 4 -10 6 0 11 5 11 10 0 6 -2 10 -4 10 -3 0
-8 -4 -11 -10z"/>
<path d="M146 1938 c3 -4 9 -8 15 -8 5 0 9 4 9 8 0 5 -7 9 -15 9 -8 0 -12 -4
-9 -9z"/>
<path d="M5070 1851 c0 -10 19 -25 25 -20 1 2 -3 10 -11 17 -8 7 -14 8 -14 3z"/>
<path d="M5015 1841 c-7 -13 35 -35 46 -24 4 4 3 15 -2 23 -9 13 -10 12 -5 -2
6 -20 5 -21 -18 -12 -9 3 -13 10 -10 15 3 5 3 9 0 9 -3 0 -7 -4 -11 -9z"/>
<path d="M5066 1805 c-11 -8 -15 -15 -9 -15 6 0 16 7 23 15 16 19 11 19 -14 0z"/>
<path d="M5101 1803 c-1 -13 -6 -22 -12 -20 -7 1 -15 -10 -20 -26 -4 -16 -4
-25 2 -21 5 3 9 14 9 25 0 11 5 17 10 14 12 -7 24 19 17 37 -3 7 -6 3 -6 -9z"/>
<path d="M5025 1779 c-5 -8 -4 -10 3 -5 8 5 12 -1 13 -16 1 -18 2 -19 6 -4 6
23 -12 43 -22 25z"/>
<path d="M435 1760 c3 -5 8 -10 11 -10 2 0 4 5 4 10 0 6 -5 10 -11 10 -5 0 -7
-4 -4 -10z"/>
<path d="M5015 1740 c3 -5 8 -10 11 -10 2 0 4 5 4 10 0 6 -5 10 -11 10 -5 0
-7 -4 -4 -10z"/>
<path d="M754 1716 c23 -18 14 -21 -15 -5 -23 12 -60 -8 -38 -21 8 -6 8 -13
-1 -30 -8 -15 -8 -20 -1 -16 6 4 11 3 11 -3 0 -5 13 -9 29 -9 24 1 28 5 26 25
-1 13 2 26 6 29 15 9 10 23 -13 34 -22 11 -22 10 -4 -4z m-19 -39 c-8 -4 -12
-15 -9 -25 5 -14 4 -14 -4 -2 -7 9 -7 19 -2 25 6 7 5 16 -3 24 -9 10 -7 10 10
0 18 -11 20 -15 8 -22z m25 -11 c0 -3 -4 -8 -10 -11 -5 -3 -10 -1 -10 4 0 6 5
11 10 11 6 0 10 -2 10 -4z"/>
<path d="M5076 1722 c-3 -5 1 -9 9 -9 8 0 12 4 9 9 -3 4 -7 8 -9 8 -2 0 -6 -4
-9 -8z"/>
<path d="M5091 1687 c-8 -10 -7 -14 2 -14 8 0 14 6 14 14 0 7 -1 13 -2 13 -2
0 -8 -6 -14 -13z"/>
<path d="M5016 1682 c-3 -5 1 -9 9 -9 8 0 12 4 9 9 -3 4 -7 8 -9 8 -2 0 -6 -4
-9 -8z"/>
<path d="M972 1598 c-7 -10 -6 -18 5 -33 15 -20 15 -20 10 2 -3 15 -1 20 9 16
8 -3 11 -10 8 -15 -4 -6 3 -5 14 1 13 7 19 17 15 26 -4 12 -8 13 -20 3 -11 -9
-16 -9 -22 1 -6 9 -10 9 -19 -1z"/>
<path d="M935 1563 c1 -21 3 -40 4 -43 0 -3 14 -5 30 -5 16 -1 28 2 25 6 -2 4
3 9 11 12 10 4 12 1 9 -11 -5 -15 -4 -15 6 1 15 23 4 40 -19 28 -15 -8 -45 -1
-41 10 1 2 -2 12 -5 22 -12 30 -22 19 -20 -20z m21 -1 c-3 -3 2 -15 11 -26 14
-15 14 -18 2 -8 -9 6 -18 10 -20 7 -3 -2 -5 6 -5 20 0 13 4 21 9 18 4 -3 6 -8
3 -11z"/>
<path d="M4906 1453 c1 -51 5 -56 41 -59 16 -1 22 0 15 3 -6 3 -10 9 -7 14 4
5 0 6 -8 4 -9 -4 -13 3 -13 25 0 17 4 29 10 26 6 -2 10 -9 8 -15 -1 -6 8 -23
21 -36 l22 -25 1 33 c1 17 -1 26 -3 20 -7 -20 -19 -15 -20 7 -1 11 3 19 10 17
6 -1 13 6 15 17 2 12 0 16 -7 11 -6 -3 -9 -12 -5 -18 3 -7 0 -5 -8 3 -7 9 -27
16 -43 16 -29 0 -30 -2 -29 -43z m53 28 c10 -7 7 -9 -12 -8 -14 1 -23 5 -20
10 6 9 15 9 32 -2z"/>
<path d="M1427 1384 c-7 -8 3 -34 13 -34 9 0 8 26 -1 35 -3 3 -8 2 -12 -1z"/>
<path d="M1706 1263 c-4 -5 -11 -8 -14 -8 -18 -1 -71 -50 -63 -58 5 -5 7 -17
4 -26 -4 -12 -3 -13 5 -2 5 7 12 9 15 4 5 -7 50 -9 67 -3 3 1 10 2 15 0 6 -1
4 4 -2 11 -9 9 -10 16 -2 26 9 9 7 14 -6 19 -13 5 -14 9 -3 15 10 7 11 9 0 9
-7 0 -10 5 -7 10 7 12 2 13 -9 3z m2 -22 c-2 -22 4 -31 15 -25 9 6 9 5 0 -8
-7 -8 -10 -17 -7 -20 3 -3 0 -9 -7 -14 -8 -4 -10 -3 -5 4 9 14 -3 15 -24 2
-10 -6 -20 -4 -32 7 -16 14 -15 16 9 37 24 21 53 30 51 17z"/>
<path d="M1665 1220 c-25 -27 -8 -43 25 -25 14 8 19 14 12 15 -7 0 -11 4 -7 9
11 20 -13 20 -30 1z m22 -5 c0 -8 -4 -12 -9 -9 -4 3 -8 0 -8 -7 0 -7 -3 -9 -6
-6 -4 4 -1 13 6 22 15 19 17 19 17 0z"/>
<path d="M4614 876 c1 -8 5 -18 8 -22 4 -3 5 1 4 10 -1 8 -5 18 -8 22 -4 3 -5
-1 -4 -10z"/>
<path d="M2213 667 c-3 -4 -2 -11 1 -14 3 -4 6 -1 6 5 0 6 6 9 14 6 8 -3 16
-2 19 3 3 5 -3 9 -14 9 -11 0 -23 -4 -26 -9z"/>
<path d="M2230 640 c0 -5 5 -10 10 -10 6 0 10 -5 10 -11 0 -5 -4 -8 -8 -5 -4
2 -14 1 -20 -3 -10 -6 -9 -11 3 -21 13 -11 15 -10 10 2 -4 9 0 15 10 15 9 0
14 -6 11 -14 -3 -7 -1 -13 4 -13 6 0 10 7 10 15 0 8 5 15 11 15 6 0 8 -7 4
-17 -5 -14 -3 -15 6 -6 14 14 2 36 -16 29 -8 -3 -17 4 -20 15 -7 20 -25 27
-25 9z"/>
<path d="M2445 560 c-2 -3 0 -12 6 -20 13 -22 11 -34 -4 -21 -10 8 -14 7 -14
-4 0 -8 4 -12 8 -10 4 3 9 -2 12 -9 3 -8 1 -17 -6 -19 -7 -3 5 -5 26 -4 37 0
47 9 25 23 -7 5 -8 3 -3 -5 6 -10 3 -11 -14 -2 -11 7 -21 14 -21 17 0 3 4 2
10 -1 5 -3 17 -2 26 3 11 6 13 11 5 16 -6 4 -11 2 -11 -3 0 -16 -17 -13 -23 3
-4 11 -1 13 11 9 15 -6 16 -5 2 13 -14 19 -14 19 8 0 13 -12 22 -14 22 -7 0 7
5 9 11 5 8 -5 8 -9 -1 -14 -8 -5 -9 -10 -2 -14 6 -3 13 -1 15 4 3 6 4 5 3 -2
-2 -7 -9 -12 -16 -10 -8 2 -10 -3 -6 -13 3 -9 6 -19 6 -21 0 -2 5 -4 11 -4 5
0 7 5 4 10 -3 6 -2 10 3 10 12 0 12 32 -1 48 -6 8 -6 12 2 12 7 0 9 5 5 11 -4
8 -9 7 -15 -2 -7 -11 -9 -11 -9 1 0 13 -1 13 -10 0 -5 -8 -10 -10 -10 -4 0 10
-49 14 -55 4z"/>
<path d="M4000 535 c-7 -9 -11 -18 -8 -20 3 -3 11 1 18 10 7 9 11 18 8 20 -3
3 -11 -1 -18 -10z"/>
<path d="M2756 442 c-3 -5 1 -9 9 -9 8 0 15 4 15 9 0 4 -4 8 -9 8 -6 0 -12 -4
-15 -8z"/>
<path d="M2810 431 c-31 -34 -45 -55 -32 -47 11 6 17 -5 13 -26 0 -5 3 -8 9
-8 5 0 7 14 5 30 -3 22 2 33 16 40 18 10 23 6 20 -13 -2 -12 34 10 49 30 13
17 13 17 -4 1 -16 -14 -22 -15 -40 -4 -18 11 -23 11 -36 -3z"/>
<path d="M3705 440 c-3 -5 -1 -10 5 -10 6 0 4 -10 -5 -24 -15 -23 -15 -24 9
-22 14 0 21 5 17 11 -4 6 -6 20 -5 33 1 23 -10 30 -21 12z"/>
<path d="M3810 446 c0 -2 7 -7 16 -10 8 -3 12 -2 9 4 -6 10 -25 14 -25 6z"/>
<path d="M3624 418 c3 -12 5 -27 5 -31 1 -5 5 -6 10 -3 13 8 8 49 -7 54 -8 2
-11 -4 -8 -20z"/>
<path d="M2680 411 c0 -6 4 -13 10 -16 6 -3 7 1 4 9 -7 18 -14 21 -14 7z"/>
<path d="M2824 412 c-12 -8 -12 -48 1 -59 4 -5 5 0 2 9 -4 12 -2 15 8 11 8 -3
13 -9 10 -13 -4 -7 10 -7 33 -1 1 1 -2 10 -8 21 -7 12 -16 17 -27 13 -12 -5
-15 -2 -10 10 7 19 7 20 -9 9z"/>
<path d="M2719 398 c-6 -21 -5 -37 2 -32 5 3 6 10 3 16 -5 8 -1 9 10 5 10 -4
15 -3 11 3 -5 9 -24 14 -26 8z"/>
<path d="M3780 392 c0 -6 -8 -9 -17 -6 -15 5 -16 4 -3 -5 16 -11 40 3 27 16
-4 3 -7 1 -7 -5z"/>
<path d="M3797 375 c-4 -8 -3 -16 1 -19 4 -3 9 4 9 15 2 23 -3 25 -10 4z"/>
<path d="M2686 363 c-6 -14 -5 -15 5 -6 7 7 10 15 7 18 -3 3 -9 -2 -12 -12z"/>
<path d="M2755 360 c3 -5 8 -10 11 -10 2 0 4 5 4 10 0 6 -5 10 -11 10 -5 0 -7
-4 -4 -10z"/>
<path d="M3740 366 c0 -2 7 -7 16 -10 8 -3 12 -2 9 4 -6 10 -25 14 -25 6z"/>
</g>
</svg>
